<svg width="24.000000" height="24.000000" viewBox="0 0 24 24" fill="none" xmlns="http://www.w3.org/2000/svg" xmlns:xlink="http://www.w3.org/1999/xlink">
	<desc>
			Created with Pixso.
	</desc>
	<defs/>
	<rect id="矩形" width="24.000000" height="24.000000" fill="#D8D8D8" fill-opacity="0"/>
	<rect id="矩形" x="0.500000" y="0.500000" width="23.000000" height="23.000000" stroke="#979797" stroke-opacity="0" stroke-width="1.000000"/>
	<mask id="mask2_100" mask-type="alpha" maskUnits="userSpaceOnUse" x="3.000000" y="1.000000" width="18.000000" height="22.000000">
		<path id="形状结合" d="M8.12769 1L15.8723 1C17.6174 1 18.2739 1.17786 18.9121 1.51221L18.9536 1.53424C19.5745 1.86627 20.0681 2.34613 20.4148 2.95416L20.4658 3.04633C20.8145 3.69818 21 4.34473 21 6.12775L21 17.8723L20.999 18.0938C20.9841 19.6744 20.8076 20.3016 20.4878 20.9121L20.4658 20.9537C20.1338 21.5745 19.6538 22.0681 19.0459 22.4148L18.9536 22.4658C18.3018 22.8143 17.6553 23 15.8723 23L8.12769 23L7.90625 22.999C6.32568 22.9843 5.69849 22.8076 5.08789 22.4878L5.04639 22.4658C4.42554 22.1337 3.93188 21.6539 3.58521 21.0458L3.53418 20.9537C3.18555 20.3018 3 19.6553 3 17.8723L3 6.12775C3 4.38269 3.17773 3.7262 3.51221 3.08789L3.53418 3.04633C3.86621 2.42548 4.34619 1.93195 4.9541 1.58514L5.04639 1.53424C5.69824 1.18567 6.34473 1 8.12769 1ZM8.02466 2.50018L15.9753 2.50018L16.0754 2.50073C17.3196 2.5097 17.7771 2.60608 18.2463 2.85699C18.6367 3.0658 18.9341 3.36328 19.1431 3.75372C19.407 4.2475 19.5 4.72858 19.5 6.12775L19.5 17.8723L19.4993 18.0753C19.4902 19.3196 19.3938 19.7772 19.1431 20.2463C18.9341 20.6367 18.6367 20.9342 18.2463 21.143C17.7524 21.4071 17.2715 21.5 15.8723 21.5L8.12769 21.5L7.92456 21.4993C6.68042 21.4903 6.2229 21.3939 5.75366 21.143C5.36328 20.9342 5.06592 20.6367 4.85693 20.2463C4.61304 19.7902 4.51514 19.3449 4.50171 18.1769L4.50024 17.9755L4.5 6.12775C4.5 4.72858 4.59302 4.2475 4.85693 3.75372C5.06592 3.36328 5.36328 3.0658 5.75366 2.85699C6.20972 2.61304 6.65503 2.5152 7.823 2.50165L8.02466 2.50018ZM14.2891 7.76788L14.3501 7.6795C14.5513 7.43347 14.9065 7.3623 15.1907 7.52631C15.5063 7.70856 15.6145 8.11218 15.4324 8.42786L13.8447 11.1768L14.4207 11.1768L14.5183 11.184C14.8364 11.2311 15.0808 11.5054 15.0808 11.8369C15.0808 12.2014 14.7852 12.4968 14.4207 12.4968L12.8806 12.4968L12.8806 13.3768L14.4207 13.3768L14.5183 13.384C14.8364 13.4311 15.0808 13.7054 15.0808 14.0368C15.0808 14.4013 14.7852 14.6968 14.4207 14.6968L12.8806 14.6968L12.8806 16.0168L12.8735 16.1144C12.8264 16.4326 12.552 16.6768 12.2207 16.6768C11.8562 16.6768 11.5608 16.3813 11.5608 16.0168L11.5605 14.6968L10.0208 14.6968L9.9231 14.6897C9.60498 14.6425 9.36084 14.3682 9.36084 14.0368C9.36084 13.6723 9.65625 13.3768 10.0208 13.3768L11.5605 13.3768L11.5605 12.4968L10.0208 12.4968L9.9231 12.4897C9.60498 12.4425 9.36084 12.1682 9.36084 11.8369C9.36084 11.4723 9.65625 11.1768 10.0208 11.1768L10.5957 11.1768L9.00903 8.42786L8.96313 8.33087C8.85059 8.03369 8.96655 7.69031 9.25073 7.52631C9.56641 7.34406 9.96997 7.45221 10.1523 7.76788L12.1196 11.1768L12.3206 11.1768L14.2891 7.76788Z" clip-rule="evenodd" fill="#000000" fill-opacity="1.000000" fill-rule="evenodd"/>
	</mask>
	<path id="形状结合" d="M8.12769 1L15.8723 1C17.6174 1 18.2739 1.17786 18.9121 1.51221L18.9536 1.53424C19.5745 1.86627 20.0681 2.34613 20.4148 2.95416L20.4658 3.04633C20.8145 3.69818 21 4.34473 21 6.12775L21 17.8723L20.999 18.0938C20.9841 19.6744 20.8076 20.3016 20.4878 20.9121L20.4658 20.9537C20.1338 21.5745 19.6538 22.0681 19.0459 22.4148L18.9536 22.4658C18.3018 22.8143 17.6553 23 15.8723 23L8.12769 23L7.90625 22.999C6.32568 22.9843 5.69849 22.8076 5.08789 22.4878L5.04639 22.4658C4.42554 22.1337 3.93188 21.6539 3.58521 21.0458L3.53418 20.9537C3.18555 20.3018 3 19.6553 3 17.8723L3 6.12775C3 4.38269 3.17773 3.7262 3.51221 3.08789L3.53418 3.04633C3.86621 2.42548 4.34619 1.93195 4.9541 1.58514L5.04639 1.53424C5.69824 1.18567 6.34473 1 8.12769 1ZM8.02466 2.50018L15.9753 2.50018L16.0754 2.50073C17.3196 2.5097 17.7771 2.60608 18.2463 2.85699C18.6367 3.0658 18.9341 3.36328 19.1431 3.75372C19.407 4.2475 19.5 4.72858 19.5 6.12775L19.5 17.8723L19.4993 18.0753C19.4902 19.3196 19.3938 19.7772 19.1431 20.2463C18.9341 20.6367 18.6367 20.9342 18.2463 21.143C17.7524 21.4071 17.2715 21.5 15.8723 21.5L8.12769 21.5L7.92456 21.4993C6.68042 21.4903 6.2229 21.3939 5.75366 21.143C5.36328 20.9342 5.06592 20.6367 4.85693 20.2463C4.61304 19.7902 4.51514 19.3449 4.50171 18.1769L4.50024 17.9755L4.5 6.12775C4.5 4.72858 4.59302 4.2475 4.85693 3.75372C5.06592 3.36328 5.36328 3.0658 5.75366 2.85699C6.20972 2.61304 6.65503 2.5152 7.823 2.50165L8.02466 2.50018ZM14.2891 7.76788L14.3501 7.6795C14.5513 7.43347 14.9065 7.3623 15.1907 7.52631C15.5063 7.70856 15.6145 8.11218 15.4324 8.42786L13.8447 11.1768L14.4207 11.1768L14.5183 11.184C14.8364 11.2311 15.0808 11.5054 15.0808 11.8369C15.0808 12.2014 14.7852 12.4968 14.4207 12.4968L12.8806 12.4968L12.8806 13.3768L14.4207 13.3768L14.5183 13.384C14.8364 13.4311 15.0808 13.7054 15.0808 14.0368C15.0808 14.4013 14.7852 14.6968 14.4207 14.6968L12.8806 14.6968L12.8806 16.0168L12.8735 16.1144C12.8264 16.4326 12.552 16.6768 12.2207 16.6768C11.8562 16.6768 11.5608 16.3813 11.5608 16.0168L11.5605 14.6968L10.0208 14.6968L9.9231 14.6897C9.60498 14.6425 9.36084 14.3682 9.36084 14.0368C9.36084 13.6723 9.65625 13.3768 10.0208 13.3768L11.5605 13.3768L11.5605 12.4968L10.0208 12.4968L9.9231 12.4897C9.60498 12.4425 9.36084 12.1682 9.36084 11.8369C9.36084 11.4723 9.65625 11.1768 10.0208 11.1768L10.5957 11.1768L9.00903 8.42786L8.96313 8.33087C8.85059 8.03369 8.96655 7.69031 9.25073 7.52631C9.56641 7.34406 9.96997 7.45221 10.1523 7.76788L12.1196 11.1768L12.3206 11.1768L14.2891 7.76788Z" clip-rule="evenodd" fill="#000000" fill-opacity="1.000000" fill-rule="evenodd"/>
</svg>
