<svg width="26.873047" height="29.972595" viewBox="0 0 26.873 29.9726" fill="none" xmlns="http://www.w3.org/2000/svg" xmlns:xlink="http://www.w3.org/1999/xlink">
	<desc>
			Created with Pixso.
	</desc>
	<defs>
		<filter id="filter_21_22748_dd" x="0.000000" y="16.049377" width="26.873047" height="13.923218" filterUnits="userSpaceOnUse" color-interpolation-filters="sRGB">
			<feFlood flood-opacity="0" result="BackgroundImageFix"/>
			<feBlend mode="normal" in="SourceGraphic" in2="BackgroundImageFix" result="shape"/>
			<feGaussianBlur stdDeviation="1.81219" result="effect_layerBlur_1"/>
		</filter>
		<linearGradient x1="21.436523" y1="22.472996" x2="5.436523" y2="22.472996" id="paint_linear_21_22748_0" gradientUnits="userSpaceOnUse">
			<stop stop-color="#0A59F7"/>
			<stop offset="1.000000" stop-color="#0A59F7"/>
		</linearGradient>
		<linearGradient x1="20.209732" y1="22.026390" x2="11.813107" y2="24.151449" id="paint_linear_21_22748_1" gradientUnits="userSpaceOnUse">
			<stop stop-color="#0CA78E"/>
			<stop offset="0.392266" stop-color="#30D9C9"/>
			<stop offset="1.000000" stop-color="#1BC29C"/>
		</linearGradient>
		<linearGradient x1="13.436523" y1="22.680794" x2="13.436523" y2="24.536011" id="paint_linear_21_22748_2" gradientUnits="userSpaceOnUse">
			<stop stop-color="#FFFFFF" stop-opacity="0.000000"/>
			<stop offset="1.000000" stop-color="#FFFFFF" stop-opacity="0.458824"/>
		</linearGradient>
		<linearGradient x1="21.435463" y1="3.725806" x2="11.436890" y2="18.376343" id="paint_linear_21_22753_0" gradientUnits="userSpaceOnUse">
			<stop stop-color="#0CA78E"/>
			<stop offset="0.392266" stop-color="#30D9C9"/>
			<stop offset="1.000000" stop-color="#1BC29C"/>
		</linearGradient>
	</defs>
	<g opacity="0.643511" filter="url(#filter_21_22748_dd)">
		<path id="形状备份 2" d="M18.4561 21.5209C18.0752 21.4988 17.5117 21.486 16.915 21.486L9.92725 21.486L9.7876 21.4862C9.18604 21.4882 8.63184 21.5034 8.28125 21.5275C7.96924 21.5491 7.6875 21.5686 7.43652 21.5859L18.6387 21.5859L19.3804 21.8266L7.38232 21.8268C6.35352 22.1733 5.83887 22.3481 5.83887 22.351C4.93359 22.613 5.83887 22.752 5.83887 22.752C5.83887 22.752 7.11182 23.0693 8.55615 23.4292L8.8291 23.4971C8.96582 23.5312 9.104 23.5656 9.24219 23.6L9.59326 23.6875C11.1699 24.08 12.6445 24.4468 12.645 24.4451C13.4092 24.635 14.1875 24.4722 14.2944 24.448L14.3071 24.4451C14.3071 24.4451 15.7944 24.0782 17.3843 23.6854L17.7383 23.5978L18.0166 23.5291C19.6348 23.1292 21.1699 22.749 21.1699 22.7462C21.8389 22.559 21.0386 22.3642 21.0386 22.3642L18.6387 21.5859L19.4365 21.5859L18.5405 21.5262L18.4561 21.5209ZM13.2178 23.586L13.4365 23.486L12.6553 23.486L12.4365 23.586L13.2178 23.586Z" clip-rule="evenodd" fill="url(#paint_linear_21_22748_0)" fill-opacity="0.000000" fill-rule="evenodd"/>
		<path id="形状备份 2" d="M18.4561 21.5209C18.0752 21.4988 17.5117 21.486 16.915 21.486L9.92725 21.486L9.7876 21.4862C9.18604 21.4882 8.63184 21.5034 8.28125 21.5275C7.96924 21.5491 7.6875 21.5686 7.43652 21.5859L18.6387 21.5859L19.3804 21.8266L7.38232 21.8268C6.35352 22.1733 5.83887 22.3481 5.83887 22.351C4.93359 22.613 5.83887 22.752 5.83887 22.752C5.83887 22.752 7.11182 23.0693 8.55615 23.4292L8.8291 23.4971C8.96582 23.5312 9.104 23.5656 9.24219 23.6L9.59326 23.6875C11.1699 24.08 12.6445 24.4468 12.645 24.4451C13.4092 24.635 14.1875 24.4722 14.2944 24.448L14.3071 24.4451C14.3071 24.4451 15.7944 24.0782 17.3843 23.6854L17.7383 23.5978L18.0166 23.5291C19.6348 23.1292 21.1699 22.749 21.1699 22.7462C21.8389 22.559 21.0386 22.3642 21.0386 22.3642L18.6387 21.5859L19.4365 21.5859L18.5405 21.5262L18.4561 21.5209ZM13.2178 23.586L13.4365 23.486L12.6553 23.486L12.4365 23.586L13.2178 23.586Z" clip-rule="evenodd" fill="url(#paint_linear_21_22748_1)" fill-opacity="1.000000" fill-rule="evenodd"/>
		<path id="形状备份 2" d="M18.4561 21.5209C18.0752 21.4988 17.5117 21.486 16.915 21.486L9.92725 21.486L9.7876 21.4862C9.18604 21.4882 8.63184 21.5034 8.28125 21.5275C7.96924 21.5491 7.6875 21.5686 7.43652 21.5859L18.6387 21.5859L19.3804 21.8266L7.38232 21.8268C6.35352 22.1733 5.83887 22.3481 5.83887 22.351C4.93359 22.613 5.83887 22.752 5.83887 22.752C5.83887 22.752 7.11182 23.0693 8.55615 23.4292L8.8291 23.4971C8.96582 23.5312 9.104 23.5656 9.24219 23.6L9.59326 23.6875C11.1699 24.08 12.6445 24.4468 12.645 24.4451C13.4092 24.635 14.1875 24.4722 14.2944 24.448L14.3071 24.4451C14.3071 24.4451 15.7944 24.0782 17.3843 23.6854L17.7383 23.5978L18.0166 23.5291C19.6348 23.1292 21.1699 22.749 21.1699 22.7462C21.8389 22.559 21.0386 22.3642 21.0386 22.3642L18.6387 21.5859L19.4365 21.5859L18.5405 21.5262L18.4561 21.5209ZM13.2178 23.586L13.4365 23.486L12.6553 23.486L12.4365 23.586L13.2178 23.586Z" clip-rule="evenodd" fill="url(#paint_linear_21_22748_2)" fill-opacity="0.000000" fill-rule="evenodd"/>
		<path id="形状备份 2" d="M18.4561 21.5209C18.0752 21.4988 17.5117 21.486 16.915 21.486L9.92725 21.486L9.7876 21.4862C9.18604 21.4882 8.63184 21.5034 8.28125 21.5275C7.96924 21.5491 7.6875 21.5686 7.43652 21.5859L18.6387 21.5859L19.3804 21.8266L7.38232 21.8268C6.35352 22.1733 5.83887 22.3481 5.83887 22.351C4.93359 22.613 5.83887 22.752 5.83887 22.752C5.83887 22.752 7.11182 23.0693 8.55615 23.4292L8.8291 23.4971C8.96582 23.5312 9.104 23.5656 9.24219 23.6L9.59326 23.6875C11.1699 24.08 12.6445 24.4468 12.645 24.4451C13.4092 24.635 14.1875 24.4722 14.2944 24.448L14.3071 24.4451C14.3071 24.4451 15.7944 24.0782 17.3843 23.6854L17.7383 23.5978L18.0166 23.5291C19.6348 23.1292 21.1699 22.749 21.1699 22.7462C21.8389 22.559 21.0386 22.3642 21.0386 22.3642L18.6387 21.5859L19.4365 21.5859L18.5405 21.5262L18.4561 21.5209ZM13.2178 23.586L13.4365 23.486L12.6553 23.486L12.4365 23.586L13.2178 23.586Z" clip-rule="evenodd" fill="#6EA7ED" fill-opacity="0.000000" fill-rule="evenodd"/>
	</g>
	<g opacity="0.600000">
		<path id="形状" d="M14.9414 0.421082L21.3247 4.10651C22.2974 4.66797 22.8965 5.70551 22.8965 6.82831L22.8965 14.1993C22.8965 15.3221 22.2974 16.3596 21.3247 16.9211L14.9414 20.6065C13.9692 21.168 12.771 21.168 11.7988 20.6065L5.41504 16.9211C4.44287 16.3596 3.84375 15.3221 3.84375 14.1993L3.84375 6.82831C3.84375 5.70551 4.44287 4.66797 5.41504 4.10651L11.7988 0.421082C12.771 -0.140381 13.9692 -0.140381 14.9414 0.421082ZM12.9004 5.17981C13.0283 4.92041 13.3423 4.8139 13.6021 4.94196C13.7051 4.99292 13.7886 5.07654 13.8398 5.17981L15.2173 7.97119L18.2979 8.41876C18.584 8.46039 18.7822 8.7262 18.7407 9.01245C18.7241 9.12646 18.6704 9.23181 18.5879 9.31226L16.3589 11.485L16.8853 14.553C16.9341 14.8381 16.7427 15.1089 16.4575 15.1578C16.3442 15.1772 16.2271 15.1588 16.125 15.1052L13.3701 13.6567L10.6147 15.1052C10.3589 15.2397 10.042 15.1414 9.90723 14.8853C9.854 14.7833 9.83545 14.6665 9.85498 14.553L10.3809 11.485L8.15186 9.31226C7.94482 9.11029 7.94043 8.77869 8.14258 8.57153C8.22314 8.48901 8.32812 8.43536 8.44238 8.41876L11.5225 7.97119L12.9004 5.17981Z" clip-rule="evenodd" fill="#44D7B6" fill-opacity="0.000000" fill-rule="evenodd"/>
		<path id="形状" d="M14.9414 0.421082L21.3247 4.10651C22.2974 4.66797 22.8965 5.70551 22.8965 6.82831L22.8965 14.1993C22.8965 15.3221 22.2974 16.3596 21.3247 16.9211L14.9414 20.6065C13.9692 21.168 12.771 21.168 11.7988 20.6065L5.41504 16.9211C4.44287 16.3596 3.84375 15.3221 3.84375 14.1993L3.84375 6.82831C3.84375 5.70551 4.44287 4.66797 5.41504 4.10651L11.7988 0.421082C12.771 -0.140381 13.9692 -0.140381 14.9414 0.421082ZM12.9004 5.17981C13.0283 4.92041 13.3423 4.8139 13.6021 4.94196C13.7051 4.99292 13.7886 5.07654 13.8398 5.17981L15.2173 7.97119L18.2979 8.41876C18.584 8.46039 18.7822 8.7262 18.7407 9.01245C18.7241 9.12646 18.6704 9.23181 18.5879 9.31226L16.3589 11.485L16.8853 14.553C16.9341 14.8381 16.7427 15.1089 16.4575 15.1578C16.3442 15.1772 16.2271 15.1588 16.125 15.1052L13.3701 13.6567L10.6147 15.1052C10.3589 15.2397 10.042 15.1414 9.90723 14.8853C9.854 14.7833 9.83545 14.6665 9.85498 14.553L10.3809 11.485L8.15186 9.31226C7.94482 9.11029 7.94043 8.77869 8.14258 8.57153C8.22314 8.48901 8.32812 8.43536 8.44238 8.41876L11.5225 7.97119L12.9004 5.17981Z" clip-rule="evenodd" fill="url(#paint_linear_21_22753_0)" fill-opacity="1.000000" fill-rule="evenodd"/>
	</g>
</svg>
