<svg width="26" height="26" viewBox="0 0 26 26" fill="none" xmlns="http://www.w3.org/2000/svg" xmlns:xlink="http://www.w3.org/1999/xlink">
	<desc>
			Created with Pixso.
	</desc>
	<defs/>
	<path id="形状" d="M21.5769 20.1143C23.6797 20.1143 25.3845 18.4257 25.3845 16.3428L25.3845 5.02856L0 5.02856L0 16.3428C0 18.4257 1.70483 20.1143 3.80762 20.1143L21.5769 20.1143ZM3.49048 8.79999L8.94629 8.79999C9.47217 8.79999 9.89819 9.22211 9.89819 9.74286C9.89819 10.2635 9.47217 10.6857 8.94629 10.6857L3.49048 10.6857L3.37085 10.6783C2.90161 10.6202 2.53833 10.2235 2.53833 9.74286C2.53833 9.22211 2.9646 8.79999 3.49048 8.79999Z" clip-rule="evenodd" fill="#FFFFFF" fill-opacity="0.901961" fill-rule="evenodd"/>
	<path id="路径" d="M21.57 0C23.67 0 25.38 1.68 25.38 3.77L25.38 5.02L0 5.02L0 3.77C0 1.68 1.7 0 3.8 0L21.57 0Z" fill="#FFFFFF" fill-opacity="0.600000" fill-rule="evenodd"/>
</svg>
