<svg width="24.000000" height="24.000000" viewBox="0 0 24 24" fill="none" xmlns="http://www.w3.org/2000/svg" xmlns:xlink="http://www.w3.org/1999/xlink">
	<desc>
			Created with Pixso.
	</desc>
	<defs/>
	<rect id="矩形" width="24.000000" height="24.000000" fill="#D8D8D8" fill-opacity="0"/>
	<rect id="矩形" x="0.500000" y="0.500000" width="23.000000" height="23.000000" stroke="#979797" stroke-opacity="0" stroke-width="1.000000"/>
	<path id="矩形备份 4" d="M8.5 3L14.5 3C16.1567 3 17.5 4.34314 17.5 6L17.5 8C17.5 9.65686 16.1567 11 14.5 11L8.5 11C6.84326 11 5.5 9.65686 5.5 8L5.5 6C5.5 4.34314 6.84326 3 8.5 3ZM14.5 4.5L8.5 4.5C7.67163 4.5 7 5.17157 7 6L7 8C7 8.82843 7.67163 9.5 8.5 9.5L14.5 9.5C15.3284 9.5 16 8.82843 16 8L16 6C16 5.17157 15.3284 4.5 14.5 4.5Z" clip-rule="evenodd" fill="#000000" fill-opacity="1.000000" fill-rule="evenodd"/>
	<path id="矩形备份 5" d="M15.25 12.5L20.75 12.5C22.2688 12.5 23.5 13.8431 23.5 15.5L23.5 17.5C23.5 19.1569 22.2688 20.5 20.75 20.5L15.25 20.5C13.7312 20.5 12.5 19.1569 12.5 17.5L12.5 15.5C12.5 13.8431 13.7312 12.5 15.25 12.5ZM20.6667 14L15.3333 14C14.5969 14 14 14.6716 14 15.5L14 17.5C14 18.3284 14.5969 19 15.3333 19L20.6667 19C21.4031 19 22 18.3284 22 17.5L22 15.5C22 14.6716 21.4031 14 20.6667 14Z" clip-rule="evenodd" fill="#000000" fill-opacity="1.000000" fill-rule="evenodd"/>
	<path id="矩形备份 6" d="M2.75 12.5L8.25 12.5C9.7688 12.5 11 13.8431 11 15.5L11 17.5C11 19.1569 9.7688 20.5 8.25 20.5L2.75 20.5C1.2312 20.5 0 19.1569 0 17.5L0 15.5C0 13.8431 1.2312 12.5 2.75 12.5ZM8.16675 14L2.83325 14C2.09692 14 1.5 14.6716 1.5 15.5L1.5 17.5C1.5 18.3284 2.09692 19 2.83325 19L8.16675 19C8.90308 19 9.5 18.3284 9.5 17.5L9.5 15.5C9.5 14.6716 8.90308 14 8.16675 14Z" clip-rule="evenodd" fill="#000000" fill-opacity="1.000000" fill-rule="evenodd"/>
</svg>
