<svg width="26.000000" height="26.000000" viewBox="0 0 26 26" fill="none" xmlns="http://www.w3.org/2000/svg" xmlns:xlink="http://www.w3.org/1999/xlink">
	<desc>
			Created with Pixso.
	</desc>
	<defs>
		<clipPath id="clip2_7675">
			<rect id="person_text_rectangle_fill" width="26.000000" height="26.000000" fill="white" fill-opacity="0"/>
		</clipPath>
	</defs>
	<g clip-path="url(#clip2_7675)">
		<g opacity="0.000000">
			<rect id="rect" width="26.000000" height="26.000000" fill="#000000" fill-opacity="1.000000"/>
		</g>
		<mask id="mask2_7678" mask-type="alpha" maskUnits="userSpaceOnUse" x="0.000000" y="0.000000" width="26.000000" height="26.000000">
			<rect id="rect" width="26.000000" height="26.000000" fill="#FFFFFF" fill-opacity="1.000000"/>
			<path id="path" d="M17 6.89C17.49 6.89 17.93 7.01 18.34 7.25C18.75 7.49 19.07 7.82 19.31 8.23C19.56 8.63 19.68 9.08 19.68 9.56C19.68 10.04 19.56 10.49 19.31 10.9C19.07 11.31 18.75 11.63 18.34 11.88C17.93 12.12 17.49 12.24 17 12.24C16.51 12.24 16.06 12.12 15.66 11.88C15.26 11.63 14.93 11.31 14.68 10.9C14.44 10.49 14.32 10.04 14.32 9.56C14.32 9.08 14.44 8.63 14.68 8.23C14.93 7.82 15.26 7.49 15.66 7.25C16.06 7.01 16.51 6.89 17 6.89ZM17.36 13.33C18.09 13.33 18.82 13.52 19.54 13.88C20.25 14.24 20.84 14.74 21.29 15.38C21.74 16.01 21.97 16.7 21.97 17.47C21.97 17.92 21.8 18.3 21.47 18.63C21.14 18.95 20.75 19.11 20.3 19.11L13.64 19.11C13.21 19.11 12.84 18.95 12.52 18.63C12.19 18.3 12.03 17.92 12.03 17.47C12.03 16.7 12.26 16.01 12.71 15.38C13.16 14.74 13.74 14.24 14.44 13.88C15.14 13.52 15.85 13.33 16.58 13.33L17.36 13.33ZM4.81 9.43C4.58 9.43 4.39 9.35 4.23 9.2C4.08 9.04 4 8.85 4 8.63C4 8.41 4.08 8.21 4.23 8.06C4.39 7.9 4.58 7.82 4.81 7.82L9.12 7.82C9.35 7.82 9.54 7.9 9.69 8.06C9.85 8.21 9.93 8.41 9.93 8.63C9.93 8.85 9.85 9.04 9.68 9.2C9.51 9.35 9.32 9.43 9.09 9.43L4.81 9.43ZM4.81 13.8C4.58 13.8 4.39 13.72 4.23 13.57C4.08 13.41 4 13.22 4 13C4 12.77 4.08 12.58 4.23 12.42C4.39 12.27 4.58 12.19 4.81 12.19L9.12 12.19C9.35 12.19 9.54 12.27 9.69 12.42C9.85 12.58 9.93 12.77 9.93 13C9.93 13.22 9.85 13.41 9.68 13.57C9.51 13.72 9.32 13.8 9.09 13.8L4.81 13.8ZM4.81 18.17C4.58 18.17 4.39 18.09 4.23 17.94C4.08 17.78 4 17.58 4 17.36C4 17.14 4.08 16.95 4.23 16.79C4.39 16.64 4.58 16.56 4.81 16.56L9.12 16.56C9.35 16.56 9.54 16.64 9.69 16.79C9.85 16.95 9.93 17.14 9.93 17.36C9.93 17.58 9.85 17.78 9.68 17.94C9.51 18.09 9.32 18.17 9.09 18.17L4.81 18.17Z" fill="#000000" fill-opacity="1.000000" fill-rule="nonzero"/>
		</mask>
		<g mask="url(#mask2_7678)">
			<path id="path" d="M4.36 3.25C3.72 3.25 3.13 3.4 2.58 3.72C2.04 4.05 1.6 4.48 1.28 5.02C0.96 5.57 0.8 6.17 0.8 6.81L0.8 19.18C0.8 19.82 0.96 20.42 1.28 20.97C1.6 21.51 2.04 21.94 2.58 22.27C3.13 22.59 3.72 22.75 4.36 22.75L21.63 22.75C22.27 22.75 22.86 22.59 23.41 22.27C23.95 21.94 24.39 21.51 24.71 20.97C25.03 20.42 25.19 19.82 25.19 19.18L25.19 6.81C25.19 6.17 25.03 5.57 24.71 5.02C24.39 4.48 23.95 4.05 23.41 3.72C22.86 3.4 22.27 3.25 21.63 3.25L4.36 3.25Z" fill="#FFFFFF" fill-opacity="0.901961" fill-rule="nonzero"/>
		</g>
	</g>
</svg>
