<svg width="24.000000" height="24.000000" viewBox="0 0 24 24" fill="none" xmlns="http://www.w3.org/2000/svg" xmlns:xlink="http://www.w3.org/1999/xlink">
	<desc>
			Created with Pixso.
	</desc>
	<defs/>
	<rect id="矩形" width="24.000000" height="24.000000" fill="#D8D8D8" fill-opacity="0"/>
	<rect id="矩形" x="0.500000" y="0.500000" width="23.000000" height="23.000000" stroke="#979797" stroke-opacity="0" stroke-width="1.000000"/>
	<mask id="mask2_119" mask-type="alpha" maskUnits="userSpaceOnUse" x="1.000000" y="1.000000" width="22.000000" height="22.000000">
		<path id="形状结合" d="M12 23C18.0752 23 23 18.0751 23 12C23 5.92487 18.0752 1 12 1C5.9248 1 1 5.92487 1 12C1 18.0751 5.9248 23 12 23ZM12 2.5C17.2468 2.5 21.5 6.7533 21.5 12C21.5 17.2467 17.2468 21.5 12 21.5C6.75342 21.5 2.5 17.2467 2.5 12C2.5 6.7533 6.75342 2.5 12 2.5ZM15.5 12.25C15.5 12.9398 16.0603 13.5 16.75 13.5C17.4397 13.5 18 12.9398 18 12.25C18 11.5602 17.4397 11 16.75 11C16.0603 11 15.5 11.5602 15.5 12.25ZM11 12.25C11 12.9398 11.5603 13.5 12.25 13.5C12.9397 13.5 13.5 12.9398 13.5 12.25C13.5 11.5602 12.9397 11 12.25 11C11.5603 11 11 11.5602 11 12.25ZM7.75 13.5C7.0603 13.5 6.5 12.9398 6.5 12.25C6.5 11.5602 7.0603 11 7.75 11C8.4397 11 9 11.5602 9 12.25C9 12.9398 8.4397 13.5 7.75 13.5Z" clip-rule="evenodd" fill="#000000" fill-opacity="1.000000" fill-rule="evenodd"/>
	</mask>
	<path id="形状结合" d="M12 23C18.0752 23 23 18.0751 23 12C23 5.92487 18.0752 1 12 1C5.9248 1 1 5.92487 1 12C1 18.0751 5.9248 23 12 23ZM12 2.5C17.2468 2.5 21.5 6.7533 21.5 12C21.5 17.2467 17.2468 21.5 12 21.5C6.75342 21.5 2.5 17.2467 2.5 12C2.5 6.7533 6.75342 2.5 12 2.5ZM15.5 12.25C15.5 12.9398 16.0603 13.5 16.75 13.5C17.4397 13.5 18 12.9398 18 12.25C18 11.5602 17.4397 11 16.75 11C16.0603 11 15.5 11.5602 15.5 12.25ZM11 12.25C11 12.9398 11.5603 13.5 12.25 13.5C12.9397 13.5 13.5 12.9398 13.5 12.25C13.5 11.5602 12.9397 11 12.25 11C11.5603 11 11 11.5602 11 12.25ZM7.75 13.5C7.0603 13.5 6.5 12.9398 6.5 12.25C6.5 11.5602 7.0603 11 7.75 11C8.4397 11 9 11.5602 9 12.25C9 12.9398 8.4397 13.5 7.75 13.5Z" clip-rule="evenodd" fill="#000000" fill-opacity="1.000000" fill-rule="evenodd"/>
</svg>
