<svg width="27.000000" height="27.000000" viewBox="0 0 27 27" fill="none" xmlns="http://www.w3.org/2000/svg" xmlns:xlink="http://www.w3.org/1999/xlink">
	<desc>
			Created with Pixso.
	</desc>
	<defs>
		<clipPath id="clip2_7655">
			<rect id="service_fill" width="27.000000" height="27.000000" fill="white" fill-opacity="0"/>
		</clipPath>
	</defs>
	<g clip-path="url(#clip2_7655)">
		<g opacity="0.000000">
			<rect id="rect" width="27.000000" height="27.000000" fill="#FFFFFF" fill-opacity="1.000000"/>
		</g>
		<path id="path" d="M22.29 10.14C22.13 8.67 21.64 7.33 20.81 6.13C19.98 4.92 18.93 3.97 17.66 3.28C16.37 2.58 14.99 2.23 13.5 2.23C12.02 2.23 10.64 2.57 9.38 3.23C8.11 3.9 7.07 4.82 6.25 5.99C5.42 7.16 4.91 8.46 4.72 9.87C4.68 10.09 4.66 10.28 4.66 10.45L4.66 12.76L3.85 12.76C3.57 12.76 3.32 12.87 3.11 13.07C2.91 13.26 2.81 13.51 2.81 13.82L2.81 16.6C2.81 16.89 2.91 17.13 3.11 17.33C3.32 17.53 3.57 17.62 3.85 17.62L6.07 17.62C6.36 17.62 6.6 17.53 6.81 17.33C7.02 17.13 7.13 16.89 7.13 16.6L7.13 10.55C7.13 10.26 7.15 9.96 7.21 9.64C7.42 8.74 7.81 7.93 8.37 7.21C8.92 6.49 9.6 5.91 10.39 5.47C10.83 6.64 11.47 7.68 12.33 8.59C13.18 9.51 14.18 10.22 15.33 10.73C16.48 11.24 17.71 11.49 19.01 11.49C19.19 11.49 19.47 11.48 19.86 11.45L19.86 13.69L19.84 16.93C19.84 17.16 19.89 17.33 19.99 17.43C20.08 17.54 20.23 17.6 20.44 17.6L23.14 17.6C23.42 17.6 23.67 17.5 23.88 17.3C24.08 17.1 24.18 16.86 24.18 16.58L24.18 13.79C24.18 13.5 24.08 13.26 23.88 13.05C23.67 12.84 23.42 12.74 23.14 12.74L22.29 12.76L22.29 10.14ZM15.44 16.89C15.19 17.15 14.89 17.34 14.55 17.48C14.21 17.61 13.86 17.68 13.5 17.68C13.13 17.68 12.79 17.61 12.46 17.48C12.12 17.34 11.82 17.15 11.55 16.89C11.44 16.77 11.31 16.72 11.13 16.72C10.96 16.73 10.82 16.8 10.72 16.93C10.59 17.05 10.53 17.2 10.53 17.35C10.53 17.52 10.59 17.67 10.72 17.79C11.09 18.15 11.52 18.43 12.01 18.61C12.5 18.8 12.99 18.9 13.5 18.9C14.02 18.9 14.52 18.8 14.99 18.61C15.47 18.43 15.9 18.15 16.27 17.79C16.4 17.67 16.47 17.52 16.48 17.35C16.48 17.2 16.43 17.05 16.31 16.93C16.18 16.8 16.03 16.73 15.87 16.72C15.71 16.72 15.57 16.77 15.44 16.89Z" fill="#FFFFFF" fill-opacity="0.898039" fill-rule="nonzero"/>
		<path id="path" d="M20.44 17.6C20.23 17.6 20.08 17.54 19.99 17.43C19.89 17.33 19.84 17.16 19.84 16.93C19.64 18.07 19.22 19.11 18.56 20.02C17.9 20.93 17.09 21.63 16.14 22.14C15.19 22.64 14.16 22.89 13.07 22.89C12.78 22.91 12.54 23.01 12.37 23.19C12.21 23.37 12.12 23.58 12.12 23.81C12.12 24.06 12.21 24.27 12.39 24.45C12.57 24.63 12.79 24.72 13.03 24.72C14.5 24.69 15.83 24.36 17.05 23.73C18.27 23.1 19.27 22.25 20.05 21.18C20.85 20.11 21.36 18.91 21.59 17.6L20.44 17.6Z" fill="#FFFFFF" fill-opacity="0.898039" fill-rule="nonzero"/>
	</g>
</svg>
