<svg width="24.000000" height="24.000000" viewBox="0 0 24 24" fill="none" xmlns="http://www.w3.org/2000/svg" xmlns:xlink="http://www.w3.org/1999/xlink">
	<desc>
			Created with Pixso.
	</desc>
	<defs/>
	<rect id="矩形" width="24.000000" height="24.000000" fill="#D8D8D8" fill-opacity="0"/>
	<rect id="矩形" x="0.500000" y="0.500000" width="23.000000" height="23.000000" stroke="#979797" stroke-opacity="0" stroke-width="1.000000"/>
	<path id="路径" d="M18.33 0C18.72 0 19.04 0.32 19.04 0.71C19.04 0.82 19.01 0.92 18.97 1.02L17.2 4.81C20.65 6.68 23 10.35 23 14.57C23 20.69 18.19 24 12.12 24C6.04 24 1 20.69 1 14.57C1 10.35 3.34 6.68 6.79 4.81L5.02 1.02C4.85 0.66 5.01 0.23 5.36 0.06C5.46 0.02 5.56 0 5.66 0L18.33 0Z" fill="#000000" fill-opacity="0" fill-rule="evenodd"/>
	<path id="路径" d="M17.2 4.81L18.97 1.02C19.01 0.92 19.04 0.82 19.04 0.71C19.04 0.32 18.72 0 18.33 0L5.66 0C5.56 0 5.46 0.02 5.36 0.06C5.01 0.23 4.85 0.66 5.02 1.02L6.79 4.81C3.34 6.68 1 10.35 1 14.57C1 20.69 6.04 24 12.12 24C18.19 24 23 20.69 23 14.57C23 10.35 20.65 6.68 17.2 4.81ZM17.09 1.5L6.9 1.5L8.15 4.18C8.31 4.54 8.33 4.91 8.21 5.28C8.09 5.66 7.85 5.94 7.5 6.13C5.85 7.03 4.61 8.17 3.77 9.56C2.92 10.97 2.5 12.64 2.5 14.57C2.5 16.02 2.81 17.29 3.44 18.38C3.87 19.14 4.46 19.81 5.21 20.4C5.25 20.43 5.29 20.47 5.34 20.5C7.09 21.83 9.35 22.5 12.12 22.5C14.87 22.5 17.1 21.83 18.8 20.49C18.83 20.46 18.86 20.44 18.89 20.41C19.52 19.9 20.03 19.32 20.43 18.68C21.14 17.53 21.5 16.16 21.5 14.57C21.5 12.64 21.07 10.97 20.22 9.56C19.38 8.17 18.14 7.03 16.49 6.13C16.14 5.94 15.9 5.66 15.78 5.28C15.66 4.91 15.68 4.54 15.84 4.18L17.09 1.5Z" fill="#000000" fill-opacity="1.000000" fill-rule="evenodd"/>
	<path id="路径" d="M13.92 9.74L13.86 9.83L11.89 13.23L11.69 13.23L9.73 9.83C9.54 9.51 9.14 9.4 8.83 9.58C8.54 9.75 8.42 10.09 8.54 10.39L8.58 10.49L10.17 13.23L9.6 13.23C9.23 13.23 8.94 13.53 8.94 13.89C8.94 14.23 9.18 14.5 9.5 14.55L9.6 14.55L11.13 14.55L11.13 15.43L9.6 15.43C9.23 15.43 8.94 15.73 8.94 16.09C8.94 16.43 9.18 16.7 9.5 16.75L9.6 16.75L11.13 16.75L11.14 18.07C11.14 18.44 11.43 18.73 11.8 18.73C12.13 18.73 12.4 18.49 12.45 18.17L12.46 18.07L12.46 16.75L14 16.75C14.36 16.75 14.66 16.46 14.66 16.09C14.66 15.76 14.41 15.49 14.09 15.44L14 15.43L12.46 15.43L12.46 14.55L14 14.55C14.36 14.55 14.66 14.26 14.66 13.89C14.66 13.56 14.41 13.29 14.09 13.24L14 13.23L13.42 13.23L15.01 10.49C15.19 10.17 15.08 9.77 14.77 9.58C14.48 9.42 14.13 9.49 13.92 9.74Z" fill="#000000" fill-opacity="1.000000" fill-rule="evenodd"/>
</svg>
