<svg width="24.000000" height="24.000000" viewBox="0 0 24 24" fill="none" xmlns="http://www.w3.org/2000/svg" xmlns:xlink="http://www.w3.org/1999/xlink">
	<desc>
			Created with Pixso.
	</desc>
	<defs/>
	<mask id="mask34_8996" mask-type="alpha" maskUnits="userSpaceOnUse" x="3.000000" y="1.000000" width="18.000000" height="22.000000">
		<path id="形状结合" d="M8.12769 1L15.8723 1C17.6174 1 18.2739 1.17786 18.9121 1.51221L18.9536 1.53424C19.5745 1.86627 20.0681 2.34613 20.4148 2.95416L20.4658 3.04633C20.8145 3.69818 21 4.34473 21 6.12775L21 17.8723L20.999 18.0938C20.9841 19.6744 20.8076 20.3016 20.4878 20.9121L20.4658 20.9537C20.1338 21.5745 19.6538 22.0681 19.0459 22.4148L18.9536 22.4658C18.3018 22.8143 17.6553 23 15.8723 23L8.12769 23L7.90625 22.999C6.32568 22.9843 5.69849 22.8076 5.08789 22.4878L5.04639 22.4658C4.42554 22.1337 3.93188 21.6539 3.58521 21.0458L3.53418 20.9537C3.18555 20.3018 3 19.6553 3 17.8723L3 6.12775C3 4.38269 3.17773 3.7262 3.51221 3.08789L3.53418 3.04633C3.86621 2.42548 4.34619 1.93195 4.9541 1.58514L5.04639 1.53424C5.69824 1.18567 6.34473 1 8.12769 1ZM8.02466 2.50018L15.9753 2.50018L16.0754 2.50073C17.3196 2.5097 17.7771 2.60608 18.2463 2.85699C18.6367 3.0658 18.9341 3.36328 19.1431 3.75372C19.407 4.2475 19.5 4.72858 19.5 6.12775L19.5 17.8723L19.4993 18.0753C19.4902 19.3196 19.3938 19.7772 19.1431 20.2463C18.9341 20.6367 18.6367 20.9342 18.2463 21.143C17.7524 21.4071 17.2715 21.5 15.8723 21.5L8.12769 21.5L7.92456 21.4993C6.68042 21.4903 6.2229 21.3939 5.75366 21.143C5.36328 20.9342 5.06592 20.6367 4.85693 20.2463C4.61304 19.7902 4.51514 19.3449 4.50171 18.1769L4.50024 17.9755L4.5 6.12775C4.5 4.72858 4.59302 4.2475 4.85693 3.75372C5.06592 3.36328 5.36328 3.0658 5.75366 2.85699C6.20972 2.61304 6.65503 2.5152 7.823 2.50165L8.02466 2.50018ZM7.5 6.25L16.5 6.25C16.9143 6.25 17.25 6.58582 17.25 7C17.25 7.41418 16.9143 7.75 16.5 7.75L7.5 7.75C7.08569 7.75 6.75 7.41418 6.75 7C6.75 6.58582 7.08569 6.25 7.5 6.25ZM16.5 11.25L7.5 11.25C7.08569 11.25 6.75 11.5858 6.75 12C6.75 12.4142 7.08569 12.75 7.5 12.75L16.5 12.75C16.9143 12.75 17.25 12.4142 17.25 12C17.25 11.5858 16.9143 11.25 16.5 11.25ZM12 16.25L7.5 16.25C7.08569 16.25 6.75 16.5858 6.75 17C6.75 17.4142 7.08569 17.75 7.5 17.75L12 17.75C12.4143 17.75 12.75 17.4142 12.75 17C12.75 16.5858 12.4143 16.25 12 16.25Z" clip-rule="evenodd" fill="#000000" fill-opacity="1.000000" fill-rule="evenodd"/>
	</mask>
	<g mask="url(#mask34_8996)">
		<rect id="color/#000000" width="24.000000" height="24.000000" fill="#000000" fill-opacity="0.901961"/>
	</g>
</svg>
