<svg width="20px" height="20px" viewBox="0 0 20 20"  version="1.1" fill="none" xmlns="http://www.w3.org/2000/svg" xmlns:xlink="http://www.w3.org/1999/xlink">
	<desc>
			Created with Pixso.
	</desc>
	<defs/>
	<path id="path-1" d="M14 0C18.1421 0 21.5 3.23795 21.5 7.23215C21.5 11.2263 18.1421 14.4643 14 14.4643L12.9919 14.4643L8.70117 18.4849C7.98877 19.1522 6.8501 18.5196 7.01636 17.6354L7.0415 17.5324L7.05566 17.4883C7.34521 16.6504 7.56934 15.9402 7.72778 15.3601L7.78418 15.1487L7.82397 14.9897C7.86084 14.8409 7.91211 14.6296 7.9502 14.4637L7.5 14.4643C3.35791 14.4643 0 11.2263 0 7.23215C0 3.23795 3.35791 0 7.5 0L14 0ZM7 7.47324C7 8.13892 6.44043 8.67859 5.75 8.67859C5.05957 8.67859 4.5 8.13892 4.5 7.47324C4.5 6.80753 5.05957 6.26788 5.75 6.26788C6.44043 6.26788 7 6.80753 7 7.47324ZM10.75 8.67859C11.4404 8.67859 12 8.13892 12 7.47324C12 6.80753 11.4404 6.26788 10.75 6.26788C10.0596 6.26788 9.5 6.80753 9.5 7.47324C9.5 8.13892 10.0596 8.67859 10.75 8.67859ZM17 7.47324C17 8.13892 16.4404 8.67859 15.75 8.67859C15.0596 8.67859 14.5 8.13892 14.5 7.47324C14.5 6.80753 15.0596 6.26788 15.75 6.26788C16.4404 6.26788 17 6.80753 17 7.47324Z" clip-rule="evenodd" fill="#A8AAAB" fill-opacity="1.000000" fill-rule="evenodd"/>
</svg>
