<svg width="21.000000" height="20.999969" viewBox="0 0 21 21" fill="none" xmlns="http://www.w3.org/2000/svg" xmlns:xlink="http://www.w3.org/1999/xlink">
	<desc>
			Created with Pixso.
	</desc>
	<defs/>
	<g opacity="0.500000">
		<path id="差集" color="#0A59F7" d="M10.5 0L10.6733 0.00140381C16.3994 0.0942383 21 4.76566 21 10.5081L20.9985 10.6733C20.9058 16.3993 16.2344 21 10.4917 21L10.3267 20.9986C4.60059 20.9058 0 16.2343 0 10.4919L0.00146484 10.3267C0.0942383 4.60068 4.76562 0 10.5 0ZM7.49951 7.80759C7.49951 6.15076 8.84277 4.80759 10.4995 4.80759C12.1562 4.80759 13.4995 6.15076 13.4995 7.80759C13.4995 9.46445 12.1562 10.8076 10.4995 10.8076C8.84277 10.8076 7.49951 9.46445 7.49951 7.80759ZM10.5 19C12.9419 19 15.1436 17.9702 16.6938 16.3212C16.0479 13.4962 13.519 11.3886 10.4985 11.3886C7.47852 11.3886 4.95068 13.4951 4.30371 16.3188C5.85449 17.9692 8.05664 19 10.5 19Z" clip-rule="evenodd" fill="#0A59F7" fill-opacity="0.600000" fill-rule="evenodd"/>
	</g>
</svg>
