<?xml version="1.0" ?><!--
  - Copyright (c) 2025 Huawei Device Co., Ltd.
  - Licensed under the Apache License, Version 2.0 (the "License");
  - you may not use this file except in compliance with the License.
  - You may obtain a copy of the License at
  -
  -     http://www.apache.org/licenses/LICENSE-2.0
  -
  - Unless required by applicable law or agreed to in writing, software
  - distributed under the License is distributed on an "AS IS" BASIS,
  - WITHOUT WARRANTIES OR CONDITIONS OF ANY KIND, either express or implied.
  - See the License for the specific language governing permissions and
  - limitations under the License.
  -->

<svg xmlns="http://www.w3.org/2000/svg" xmlns:xlink="http://www.w3.org/1999/xlink" version="1.1" viewBox="0 0 94 94" style="enable-background:new 0 0 94 94;" xml:space="preserve"><style type="text/css">
	.st0{display:none;}
	.st1{display:inline;fill:#FEA900;}
	.st2{display:inline;}
	.st3{display:inline;fill:#F9CD6C;}
	.st4{display:inline;fill:none;stroke:#000000;stroke-width:0.25;stroke-miterlimit:10;}
	.st5{stroke:#000000;stroke-linecap:round;stroke-linejoin:round;stroke-miterlimit:10;}
	.st6{opacity:0.2;stroke:#000000;stroke-linecap:round;stroke-linejoin:round;stroke-miterlimit:10;}
	.st7{fill:#F12A00;stroke:#000000;stroke-linecap:round;stroke-linejoin:round;stroke-miterlimit:10;}
	.st8{fill:#FBECCF;stroke:#000000;stroke-linecap:round;stroke-linejoin:round;stroke-miterlimit:10;}
	.st9{opacity:0.2;fill:#F12A00;}
	.st10{fill:#F7C86C;stroke:#000000;stroke-linecap:round;stroke-linejoin:round;stroke-miterlimit:10;}
	.st11{fill:none;stroke:#000000;stroke-linecap:round;stroke-linejoin:round;stroke-miterlimit:10;}
	.st12{display:inline;stroke:#000000;stroke-linecap:round;stroke-linejoin:round;stroke-miterlimit:10;}
	.st13{fill:#FAAC01;stroke:#000000;stroke-linecap:round;stroke-linejoin:round;stroke-miterlimit:10;}
	.st14{fill:#FAAC01;}
	.st15{display:inline;fill:#FAEBCE;stroke:#000000;stroke-width:0.25;stroke-miterlimit:10;}
	.st16{display:inline;fill:none;stroke:#000000;stroke-width:1.0164;stroke-miterlimit:10;}
	.st17{display:inline;fill:#FAEBCE;stroke:#000000;stroke-width:1.0164;stroke-miterlimit:10;}
	.st18{fill:#FEA900;}
	.st19{fill:#F9CD6C;}
	.st20{fill:none;stroke:#000000;stroke-width:1.0164;stroke-miterlimit:10;}
	.st21{fill:#FAEBCE;stroke:#000000;stroke-width:1.0164;stroke-miterlimit:10;}
	.st22{display:inline;fill:#FAEBCE;}
	.st23{fill:#008FF5;stroke:#000000;stroke-linecap:round;stroke-linejoin:round;stroke-miterlimit:10;}
	.st24{fill:#D0E6FB;stroke:#000000;stroke-linecap:round;stroke-linejoin:round;stroke-miterlimit:10;}
	.st25{fill:#FFFFFF;stroke:#000000;stroke-linecap:round;stroke-linejoin:round;stroke-miterlimit:10;}
	.st26{fill:#75D95D;stroke:#000000;stroke-linecap:round;stroke-linejoin:round;stroke-miterlimit:10;}
	.st27{fill:#CAF3BB;}
	.st28{fill:#FFFFFF;}
	.st29{fill:#CAF3BB;stroke:#000000;stroke-linecap:round;stroke-linejoin:round;stroke-miterlimit:10;}
	.st30{display:inline;fill:#D0E6FB;stroke:#000000;stroke-linecap:round;stroke-linejoin:round;stroke-miterlimit:10;}
	.st31{stroke:#FFFFFF;stroke-linecap:round;stroke-linejoin:round;stroke-miterlimit:10;}
	.st32{fill:#B4B2FB;stroke:#000000;stroke-linecap:round;stroke-linejoin:round;stroke-miterlimit:10;}
	.st33{fill:#018BEE;}
	.st34{display:inline;fill:none;stroke:#000000;stroke-linecap:round;stroke-linejoin:round;stroke-miterlimit:10;}
	.st35{fill:#75D95D;}
	.st36{fill:#4949F7;stroke:#000000;stroke-linecap:round;stroke-linejoin:round;stroke-miterlimit:10;}
	.st37{fill:#D0E6FB;}
	.st38{fill:#6FBBF7;stroke:#000000;stroke-linecap:round;stroke-linejoin:round;stroke-miterlimit:10;}
	.st39{fill:#018BEE;stroke:#000000;stroke-linecap:round;stroke-linejoin:round;stroke-miterlimit:10;}
	.st40{fill:#B4B2FB;}
	.st41{fill:#E8E9FE;}
	.st42{fill:#B4B2FB;stroke:#000F24;stroke-miterlimit:10;}
	.st43{stroke:#000000;stroke-miterlimit:10;}
	.st44{fill:#E8E9FE;stroke:#000000;stroke-linecap:round;stroke-linejoin:round;stroke-miterlimit:10;}
	.st45{opacity:0.3;fill:#018BEE;}
	.st46{fill:#6FBBF7;}
	.st47{fill:#FAAC01;stroke:#FFFFFF;stroke-linecap:round;stroke-linejoin:round;stroke-miterlimit:10;}
	.st48{fill:#006A2F;}
	.st49{opacity:0.1;}
	.st50{fill:#FCD4CA;stroke:#000000;stroke-linecap:round;stroke-linejoin:round;stroke-miterlimit:10;}
	.st51{fill:#006A2F;stroke:#000000;stroke-linecap:round;stroke-linejoin:round;stroke-miterlimit:10;}
	.st52{fill:#4949F7;}
	.st53{fill:#F12A00;}
	.st54{fill:#D0E6FB;stroke:#018BEE;stroke-linecap:round;stroke-linejoin:round;stroke-miterlimit:10;}
	.st55{fill:#9CD7FF;}
	.st56{fill:#F7C86C;}
	.st57{opacity:0.3;stroke:#000000;stroke-linecap:round;stroke-linejoin:round;stroke-miterlimit:10;}
	.st58{opacity:0.1;stroke:#000000;stroke-linecap:round;stroke-linejoin:round;stroke-miterlimit:10;}
	.st59{opacity:0.3;fill:#006A2F;}
	.st60{stroke:#000000;stroke-width:1.0825;stroke-linecap:round;stroke-linejoin:round;stroke-miterlimit:10;}
	.st61{fill:#D0E6FB;stroke:#000000;stroke-width:1.0825;stroke-linecap:round;stroke-linejoin:round;stroke-miterlimit:10;}
	.st62{fill:#6FBBF7;stroke:#000000;stroke-width:1.0825;stroke-linecap:round;stroke-linejoin:round;stroke-miterlimit:10;}
	.st63{fill:none;stroke:#000000;stroke-width:1.0825;stroke-linecap:round;stroke-linejoin:round;stroke-miterlimit:10;}
	.st64{fill:#CAF3BB;stroke:#000000;stroke-width:0.7876;stroke-linecap:round;stroke-linejoin:round;stroke-miterlimit:10;}
	.st65{fill:#6FBBF7;stroke:#FFFFFF;stroke-linecap:round;stroke-linejoin:round;stroke-miterlimit:10;}
	.st66{opacity:0.2;}
	.st67{stroke:#E8E9FE;stroke-linecap:round;stroke-linejoin:round;stroke-miterlimit:10;}
	.st68{fill:#FCD4CA;}
	.st69{fill:#FBECCF;}
	.st70{opacity:0.1;fill:#F12A00;}
	.st71{opacity:0.5;stroke:#000000;stroke-linecap:round;stroke-linejoin:round;stroke-miterlimit:10;}
	.st72{fill:#6FBBF7;stroke:#E8E9FE;stroke-linecap:round;stroke-linejoin:round;stroke-miterlimit:10;}
	.st73{opacity:0.5;fill:#D0E6FB;}
	.st74{fill:#70BAF7;}
	.st75{fill:none;stroke:#FFFFFF;stroke-linecap:round;stroke-linejoin:round;stroke-miterlimit:10;}
	.st76{fill:#70BAF7;stroke:#70BAF7;stroke-linecap:round;stroke-linejoin:round;stroke-miterlimit:10;}
	.st77{fill:#018BEE;stroke:#018BEE;stroke-linecap:round;stroke-linejoin:round;stroke-miterlimit:10;}
	.st78{fill:#70BAF7;stroke:#000000;stroke-linecap:round;stroke-linejoin:round;stroke-miterlimit:10;}
	.st79{fill:#F9CD6C;stroke:#000000;stroke-linecap:round;stroke-linejoin:round;stroke-miterlimit:10;}
	.st80{fill:none;}
	.st81{fill:#006A2F;stroke:#006A2F;stroke-miterlimit:10;}
	.st82{fill:#B4DFFC;}
	.st83{fill:#6FBBF7;stroke:#018BEE;stroke-linecap:round;stroke-linejoin:round;stroke-miterlimit:10;}
	.st84{fill:none;stroke:#FBECCF;stroke-linecap:round;stroke-linejoin:round;stroke-miterlimit:10;}
	.st85{fill:none;stroke:#018BEE;stroke-linecap:round;stroke-linejoin:round;stroke-miterlimit:10;}
	.st86{fill:#010101;stroke:#FFFFFF;stroke-linecap:round;stroke-linejoin:round;stroke-miterlimit:10;}
	.st87{fill:#010101;stroke:#000000;stroke-linecap:round;stroke-linejoin:round;stroke-miterlimit:10;}
	.st88{fill:#75D95D;stroke:#FFFFFF;stroke-linecap:round;stroke-linejoin:round;stroke-miterlimit:10;}
	.st89{fill:#94F279;stroke:#000000;stroke-linecap:round;stroke-linejoin:round;stroke-miterlimit:10;}
	.st90{fill:#8C8CF9;}
	.st91{fill:#008FF5;}
	.st92{fill:#8CD8F9;}
	.st93{fill:#FFC043;}
	.st94{fill:#94F279;}
	.st95{fill:#FF3D1D;}
	.st96{fill:#31B1FF;}
	.st97{fill:#FFCF7B;}
	.st98{fill:#B2FF99;}
	.st99{fill:#D7D7FF;}
	.st100{fill:#FF7C6E;}
	.st101{fill:#5CC9FF;}
	.st102{fill:#F12A00;stroke:#FFFFFF;stroke-linecap:round;stroke-linejoin:round;stroke-miterlimit:10;}
	.st103{fill:#F7C86C;stroke:#000000;stroke-width:1.0164;stroke-miterlimit:10;}
</style><g id="Refrences" class="st0"/><g id="Tittle"/><g id="Icons"><g><g><path class="st5" d="M84.02,3.53H72.16v7.38h14.29v7.95H92v-7.36C92,7.1,88.43,3.53,84.02,3.53z"/><path class="st5" d="M86.45,18.86v65.87H72.16v5.74h11.86c4.4,0,7.98-3.57,7.98-7.98V18.86H86.45z"/></g><g><path class="st8" d="M88.94,11.51v7.36H2v-7.36c0-4.4,3.57-7.98,7.98-7.98h70.99C85.37,3.53,88.94,7.1,88.94,11.51z"/><path class="st25" d="M88.94,18.86v63.63c0,4.4-3.57,7.98-7.98,7.98H9.98C5.57,90.47,2,86.9,2,82.49V18.86H88.94z"/><circle class="st7" cx="9.82" cy="11.2" r="2.93"/><circle class="st10" cx="18.38" cy="11.2" r="2.93"/><circle class="st25" cx="26.93" cy="11.2" r="2.93"/><g><path class="st44" d="M41.1,73.09H10.79c-1.6,0-2.89-1.29-2.89-2.89V38.02c0-1.6,1.29-2.89,2.89-2.89H41.1      c1.6,0,2.89,1.29,2.89,2.89V70.2C43.99,71.79,42.69,73.09,41.1,73.09z"/><g><polygon class="st5" points="41.41,47.37 35.96,50.38 35.96,47.03 37.73,41.63 38.13,41.74      "/><path class="st5" d="M33.06,40.31c-0.03,1.72-0.63,3.32-1.56,4.55v23.37h2.74c0.95,0,1.72-0.77,1.72-1.72V47.03l1.77-5.4       L33.06,40.31z"/><path class="st5" d="M31.5,64.9v3.32h2.74c0.95,0,1.72-0.77,1.72-1.72v-5.41C35.96,61.09,34.77,63.26,31.5,64.9z"/><path class="st5" d="M31.5,44.86c0.93-1.23,1.53-2.83,1.56-4.55l-1.15-0.32c-0.14,0.16-0.28,0.28-0.41,0.42V44.86z"/><polygon class="st51" points="18.43,47.03 18.43,51 11.88,47.37 15.16,41.74      "/><polygon class="st51" points="40,47.37 34.55,50.38 34.55,47.03 36.32,41.63 36.72,41.74      "/><path class="st26" d="M36.32,41.63l-1.77,5.4V66.5c0,0.95-0.77,1.72-1.72,1.72H20.16c-0.95,0-1.72-0.77-1.72-1.72V47.03       l-3.27-5.29l4.87-1.38c0.01,3.73,2.61,6.82,5.81,6.82c3.16,0,5.74-3.19,5.81-6.87L36.32,41.63z"/><path class="st48" d="M18.43,66.5c0,0.95,0.77,1.72,1.72,1.72h12.67c0.95,0,1.72-0.77,1.72-1.72v-5.41       C34.55,61.09,30.85,67.89,18.43,66.5z"/><path class="st44" d="M31.66,40.31c-0.07,3.68-2.65,6.87-5.81,6.87c-3.2,0-5.8-3.09-5.81-6.82l1.34-0.37c0,0,4.21,5.67,9.14,0       L31.66,40.31z"/><line class="st11" x1="36.33" y1="41.59" x2="36.32" y2="41.63"/><path class="st11" d="M20.04,40.36c0-0.01,0-0.01,0-0.03"/><path class="st11" d="M36.32,41.63l-1.77,5.4V66.5c0,0.95-0.77,1.72-1.72,1.72H20.16c-0.95,0-1.72-0.77-1.72-1.72V47.03       l-3.27-5.29l4.87-1.38c0.01,3.73,2.61,6.82,5.81,6.82c3.16,0,5.74-3.19,5.81-6.87L36.32,41.63z"/></g><g><line class="st11" x1="47.58" y1="24.65" x2="83.04" y2="24.65"/><line class="st11" x1="47.58" y1="30.99" x2="83.04" y2="30.99"/><line class="st11" x1="47.58" y1="37.34" x2="83.04" y2="37.34"/><line class="st11" x1="47.58" y1="43.68" x2="83.04" y2="43.68"/><line class="st11" x1="47.58" y1="50.03" x2="83.04" y2="50.03"/><line class="st11" x1="47.58" y1="56.37" x2="83.04" y2="56.37"/><line class="st11" x1="47.58" y1="62.72" x2="83.04" y2="62.72"/></g><path class="st14" d="M82.11,74.09h-33.6c-0.52,0-0.93-0.42-0.93-0.93v-4c0-0.52,0.42-0.93,0.93-0.93h33.6      c0.52,0,0.93,0.42,0.93,0.93v4C83.04,73.68,82.63,74.09,82.11,74.09z"/><g><circle class="st52" cx="52.66" cy="71.16" r="1.72"/><circle class="st40" cx="58.98" cy="71.16" r="1.72"/><circle class="st33" cx="65.31" cy="71.16" r="1.72"/><circle class="st52" cx="71.64" cy="71.16" r="1.72"/><circle class="st52" cx="77.97" cy="71.16" r="1.72"/></g><path d="M82.2,79.8H48.42c-0.51,0.38-0.84,0.98-0.84,1.67v1.13c0,1.15,0.94,2.09,2.09,2.09h31.28c1.15,0,2.09-0.94,2.09-2.09      v-1.13C83.04,80.78,82.71,80.18,82.2,79.8z"/><path class="st53" d="M80.95,83.23H49.67c-1.15,0-2.09-0.94-2.09-2.09v-1.13c0-1.15,0.94-2.09,2.09-2.09h31.28      c1.15,0,2.09,0.94,2.09,2.09v1.13C83.04,82.3,82.11,83.23,80.95,83.23z"/></g></g></g></g><g id="Layer_4"/></svg>