<?xml version="1.0" ?><!--
  - Copyright (c) 2025 Huawei Device Co., Ltd.
  - Licensed under the Apache License, Version 2.0 (the "License");
  - you may not use this file except in compliance with the License.
  - You may obtain a copy of the License at
  -
  -     http://www.apache.org/licenses/LICENSE-2.0
  -
  - Unless required by applicable law or agreed to in writing, software
  - distributed under the License is distributed on an "AS IS" BASIS,
  - WITHOUT WARRANTIES OR CONDITIONS OF ANY KIND, either express or implied.
  - See the License for the specific language governing permissions and
  - limitations under the License.
  -->

<svg xmlns="http://www.w3.org/2000/svg" xmlns:xlink="http://www.w3.org/1999/xlink" version="1.1" viewBox="0 0 94 94" style="enable-background:new 0 0 94 94;" xml:space="preserve"><style type="text/css">
	.st0{display:none;}
	.st1{display:inline;fill:#FEA900;}
	.st2{display:inline;}
	.st3{display:inline;fill:#F9CD6C;}
	.st4{display:inline;fill:none;stroke:#000000;stroke-width:0.25;stroke-miterlimit:10;}
	.st5{stroke:#000000;stroke-linecap:round;stroke-linejoin:round;stroke-miterlimit:10;}
	.st6{opacity:0.2;stroke:#000000;stroke-linecap:round;stroke-linejoin:round;stroke-miterlimit:10;}
	.st7{fill:#F12A00;stroke:#000000;stroke-linecap:round;stroke-linejoin:round;stroke-miterlimit:10;}
	.st8{fill:#FBECCF;stroke:#000000;stroke-linecap:round;stroke-linejoin:round;stroke-miterlimit:10;}
	.st9{opacity:0.2;fill:#F12A00;}
	.st10{fill:#F7C86C;stroke:#000000;stroke-linecap:round;stroke-linejoin:round;stroke-miterlimit:10;}
	.st11{fill:none;stroke:#000000;stroke-linecap:round;stroke-linejoin:round;stroke-miterlimit:10;}
	.st12{display:inline;stroke:#000000;stroke-linecap:round;stroke-linejoin:round;stroke-miterlimit:10;}
	.st13{fill:#FAAC01;stroke:#000000;stroke-linecap:round;stroke-linejoin:round;stroke-miterlimit:10;}
	.st14{fill:#FAAC01;}
	.st15{display:inline;fill:#FAEBCE;stroke:#000000;stroke-width:0.25;stroke-miterlimit:10;}
	.st16{display:inline;fill:none;stroke:#000000;stroke-width:1.0164;stroke-miterlimit:10;}
	.st17{display:inline;fill:#FAEBCE;stroke:#000000;stroke-width:1.0164;stroke-miterlimit:10;}
	.st18{fill:#FEA900;}
	.st19{fill:#F9CD6C;}
	.st20{fill:none;stroke:#000000;stroke-width:1.0164;stroke-miterlimit:10;}
	.st21{fill:#FAEBCE;stroke:#000000;stroke-width:1.0164;stroke-miterlimit:10;}
	.st22{display:inline;fill:#FAEBCE;}
	.st23{fill:#008FF5;stroke:#000000;stroke-linecap:round;stroke-linejoin:round;stroke-miterlimit:10;}
	.st24{fill:#D0E6FB;stroke:#000000;stroke-linecap:round;stroke-linejoin:round;stroke-miterlimit:10;}
	.st25{fill:#FFFFFF;stroke:#000000;stroke-linecap:round;stroke-linejoin:round;stroke-miterlimit:10;}
	.st26{fill:#75D95D;stroke:#000000;stroke-linecap:round;stroke-linejoin:round;stroke-miterlimit:10;}
	.st27{fill:#CAF3BB;}
	.st28{fill:#FFFFFF;}
	.st29{fill:#CAF3BB;stroke:#000000;stroke-linecap:round;stroke-linejoin:round;stroke-miterlimit:10;}
	.st30{display:inline;fill:#D0E6FB;stroke:#000000;stroke-linecap:round;stroke-linejoin:round;stroke-miterlimit:10;}
	.st31{stroke:#FFFFFF;stroke-linecap:round;stroke-linejoin:round;stroke-miterlimit:10;}
	.st32{fill:#B4B2FB;stroke:#000000;stroke-linecap:round;stroke-linejoin:round;stroke-miterlimit:10;}
	.st33{fill:#018BEE;}
	.st34{display:inline;fill:none;stroke:#000000;stroke-linecap:round;stroke-linejoin:round;stroke-miterlimit:10;}
	.st35{fill:#75D95D;}
	.st36{fill:#4949F7;stroke:#000000;stroke-linecap:round;stroke-linejoin:round;stroke-miterlimit:10;}
	.st37{fill:#D0E6FB;}
	.st38{fill:#6FBBF7;stroke:#000000;stroke-linecap:round;stroke-linejoin:round;stroke-miterlimit:10;}
	.st39{fill:#018BEE;stroke:#000000;stroke-linecap:round;stroke-linejoin:round;stroke-miterlimit:10;}
	.st40{fill:#B4B2FB;}
	.st41{fill:#E8E9FE;}
	.st42{fill:#B4B2FB;stroke:#000F24;stroke-miterlimit:10;}
	.st43{stroke:#000000;stroke-miterlimit:10;}
	.st44{fill:#E8E9FE;stroke:#000000;stroke-linecap:round;stroke-linejoin:round;stroke-miterlimit:10;}
	.st45{opacity:0.3;fill:#018BEE;}
	.st46{fill:#6FBBF7;}
	.st47{fill:#FAAC01;stroke:#FFFFFF;stroke-linecap:round;stroke-linejoin:round;stroke-miterlimit:10;}
	.st48{fill:#006A2F;}
	.st49{opacity:0.1;}
	.st50{fill:#FCD4CA;stroke:#000000;stroke-linecap:round;stroke-linejoin:round;stroke-miterlimit:10;}
	.st51{fill:#006A2F;stroke:#000000;stroke-linecap:round;stroke-linejoin:round;stroke-miterlimit:10;}
	.st52{fill:#4949F7;}
	.st53{fill:#F12A00;}
	.st54{fill:#D0E6FB;stroke:#018BEE;stroke-linecap:round;stroke-linejoin:round;stroke-miterlimit:10;}
	.st55{fill:#9CD7FF;}
	.st56{fill:#F7C86C;}
	.st57{opacity:0.3;stroke:#000000;stroke-linecap:round;stroke-linejoin:round;stroke-miterlimit:10;}
	.st58{opacity:0.1;stroke:#000000;stroke-linecap:round;stroke-linejoin:round;stroke-miterlimit:10;}
	.st59{opacity:0.3;fill:#006A2F;}
	.st60{stroke:#000000;stroke-width:1.0825;stroke-linecap:round;stroke-linejoin:round;stroke-miterlimit:10;}
	.st61{fill:#D0E6FB;stroke:#000000;stroke-width:1.0825;stroke-linecap:round;stroke-linejoin:round;stroke-miterlimit:10;}
	.st62{fill:#6FBBF7;stroke:#000000;stroke-width:1.0825;stroke-linecap:round;stroke-linejoin:round;stroke-miterlimit:10;}
	.st63{fill:none;stroke:#000000;stroke-width:1.0825;stroke-linecap:round;stroke-linejoin:round;stroke-miterlimit:10;}
	.st64{fill:#CAF3BB;stroke:#000000;stroke-width:0.7876;stroke-linecap:round;stroke-linejoin:round;stroke-miterlimit:10;}
	.st65{fill:#6FBBF7;stroke:#FFFFFF;stroke-linecap:round;stroke-linejoin:round;stroke-miterlimit:10;}
	.st66{opacity:0.2;}
	.st67{stroke:#E8E9FE;stroke-linecap:round;stroke-linejoin:round;stroke-miterlimit:10;}
	.st68{fill:#FCD4CA;}
	.st69{fill:#FBECCF;}
	.st70{opacity:0.1;fill:#F12A00;}
	.st71{opacity:0.5;stroke:#000000;stroke-linecap:round;stroke-linejoin:round;stroke-miterlimit:10;}
	.st72{fill:#6FBBF7;stroke:#E8E9FE;stroke-linecap:round;stroke-linejoin:round;stroke-miterlimit:10;}
	.st73{opacity:0.5;fill:#D0E6FB;}
	.st74{fill:#70BAF7;}
	.st75{fill:none;stroke:#FFFFFF;stroke-linecap:round;stroke-linejoin:round;stroke-miterlimit:10;}
	.st76{fill:#70BAF7;stroke:#70BAF7;stroke-linecap:round;stroke-linejoin:round;stroke-miterlimit:10;}
	.st77{fill:#018BEE;stroke:#018BEE;stroke-linecap:round;stroke-linejoin:round;stroke-miterlimit:10;}
	.st78{fill:#70BAF7;stroke:#000000;stroke-linecap:round;stroke-linejoin:round;stroke-miterlimit:10;}
	.st79{fill:#F9CD6C;stroke:#000000;stroke-linecap:round;stroke-linejoin:round;stroke-miterlimit:10;}
	.st80{fill:none;}
	.st81{fill:#006A2F;stroke:#006A2F;stroke-miterlimit:10;}
	.st82{fill:#B4DFFC;}
	.st83{fill:#6FBBF7;stroke:#018BEE;stroke-linecap:round;stroke-linejoin:round;stroke-miterlimit:10;}
	.st84{fill:none;stroke:#FBECCF;stroke-linecap:round;stroke-linejoin:round;stroke-miterlimit:10;}
	.st85{fill:none;stroke:#018BEE;stroke-linecap:round;stroke-linejoin:round;stroke-miterlimit:10;}
	.st86{fill:#010101;stroke:#FFFFFF;stroke-linecap:round;stroke-linejoin:round;stroke-miterlimit:10;}
	.st87{fill:#010101;stroke:#000000;stroke-linecap:round;stroke-linejoin:round;stroke-miterlimit:10;}
	.st88{fill:#75D95D;stroke:#FFFFFF;stroke-linecap:round;stroke-linejoin:round;stroke-miterlimit:10;}
	.st89{fill:#94F279;stroke:#000000;stroke-linecap:round;stroke-linejoin:round;stroke-miterlimit:10;}
	.st90{fill:#8C8CF9;}
	.st91{fill:#008FF5;}
	.st92{fill:#8CD8F9;}
	.st93{fill:#FFC043;}
	.st94{fill:#94F279;}
	.st95{fill:#FF3D1D;}
	.st96{fill:#31B1FF;}
	.st97{fill:#FFCF7B;}
	.st98{fill:#B2FF99;}
	.st99{fill:#D7D7FF;}
	.st100{fill:#FF7C6E;}
	.st101{fill:#5CC9FF;}
	.st102{fill:#F12A00;stroke:#FFFFFF;stroke-linecap:round;stroke-linejoin:round;stroke-miterlimit:10;}
	.st103{fill:#F7C86C;stroke:#000000;stroke-width:1.0164;stroke-miterlimit:10;}
</style><g id="Refrences" class="st0"/><g id="Tittle"/><g id="Icons"><g><path class="st5" d="M67.51,10.17H6.83C4.16,10.17,2,12.33,2,14.99V85.2c0,2.66,2.16,4.82,4.83,4.82h60.69    c2.67,0,4.83-2.15,4.83-4.82V14.99C72.34,12.33,70.19,10.17,67.51,10.17z M16.36,24.26c-2.65,0-4.81-2.15-4.81-4.81    c0-2.65,2.15-4.81,4.81-4.81c2.65,0,4.81,2.15,4.81,4.81C21.17,22.1,19.02,24.26,16.36,24.26z M57.98,24.26    c-2.65,0-4.8-2.15-4.8-4.81c0-2.65,2.14-4.81,4.8-4.81c2.65,0,4.81,2.15,4.81,4.81C62.78,22.1,60.63,24.26,57.98,24.26z"/><path class="st44" d="M72.11,10.17H11.42c-2.66,0-4.83,2.16-4.83,4.83V85.2c0,2.66,2.16,4.82,4.83,4.82h60.69    c2.67,0,4.83-2.15,4.83-4.82V14.99C76.94,12.33,74.78,10.17,72.11,10.17z M20.96,24.26c-2.65,0-4.81-2.15-4.81-4.81    c0-2.65,2.15-4.81,4.81-4.81c2.65,0,4.81,2.15,4.81,4.81C25.77,22.1,23.61,24.26,20.96,24.26z M62.57,24.26    c-2.65,0-4.8-2.15-4.8-4.81c0-2.65,2.14-4.81,4.8-4.81c2.65,0,4.81,2.15,4.81,4.81C67.38,22.1,65.23,24.26,62.57,24.26z"/><path class="st77" d="M25.58,47.93h-6.87c-1.45,0-2.62-1.17-2.62-2.62v-6.87c0-1.45,1.17-2.62,2.62-2.62h6.87    c1.45,0,2.62,1.17,2.62,2.62v6.87C28.2,46.76,27.03,47.93,25.58,47.93z"/><path class="st77" d="M45.2,47.93h-6.87c-1.45,0-2.62-1.17-2.62-2.62v-6.87c0-1.45,1.17-2.62,2.62-2.62h6.87    c1.45,0,2.62,1.17,2.62,2.62v6.87C47.82,46.76,46.65,47.93,45.2,47.93z"/><path class="st77" d="M64.82,47.93h-6.87c-1.45,0-2.62-1.17-2.62-2.62v-6.87c0-1.45,1.17-2.62,2.62-2.62h6.87    c1.45,0,2.62,1.17,2.62,2.62v6.87C67.43,46.76,66.26,47.93,64.82,47.93z"/><path class="st77" d="M25.58,65.29h-6.87c-1.45,0-2.62-1.17-2.62-2.62v-6.87c0-1.45,1.17-2.62,2.62-2.62h6.87    c1.45,0,2.62,1.17,2.62,2.62v6.87C28.2,64.12,27.03,65.29,25.58,65.29z"/><path class="st77" d="M45.2,65.29h-6.87c-1.45,0-2.62-1.17-2.62-2.62v-6.87c0-1.45,1.17-2.62,2.62-2.62h6.87    c1.45,0,2.62,1.17,2.62,2.62v6.87C47.82,64.12,46.65,65.29,45.2,65.29z"/><path class="st77" d="M25.58,82.65h-6.87c-1.45,0-2.62-1.17-2.62-2.62v-6.87c0-1.45,1.17-2.62,2.62-2.62h6.87    c1.45,0,2.62,1.17,2.62,2.62v6.87C28.2,81.48,27.03,82.65,25.58,82.65z"/><path class="st77" d="M45.2,82.65h-6.87c-1.45,0-2.62-1.17-2.62-2.62v-6.87c0-1.45,1.17-2.62,2.62-2.62h6.87    c1.45,0,2.62,1.17,2.62,2.62v6.87C47.82,81.48,46.65,82.65,45.2,82.65z"/><path class="st32" d="M25.58,46.49h-6.87c-1.45,0-2.62-1.17-2.62-2.62V37c0-1.45,1.17-2.62,2.62-2.62h6.87    c1.45,0,2.62,1.17,2.62,2.62v6.87C28.2,45.31,27.03,46.49,25.58,46.49z"/><path class="st32" d="M45.2,46.49h-6.87c-1.45,0-2.62-1.17-2.62-2.62V37c0-1.45,1.17-2.62,2.62-2.62h6.87    c1.45,0,2.62,1.17,2.62,2.62v6.87C47.82,45.31,46.65,46.49,45.2,46.49z"/><path class="st32" d="M64.82,46.49h-6.87c-1.45,0-2.62-1.17-2.62-2.62V37c0-1.45,1.17-2.62,2.62-2.62h6.87    c1.45,0,2.62,1.17,2.62,2.62v6.87C67.43,45.31,66.26,46.49,64.82,46.49z"/><path class="st26" d="M25.58,63.85h-6.87c-1.45,0-2.62-1.17-2.62-2.62v-6.87c0-1.45,1.17-2.62,2.62-2.62h6.87    c1.45,0,2.62,1.17,2.62,2.62v6.87C28.2,62.68,27.03,63.85,25.58,63.85z"/><path class="st32" d="M45.2,63.85h-6.87c-1.45,0-2.62-1.17-2.62-2.62v-6.87c0-1.45,1.17-2.62,2.62-2.62h6.87    c1.45,0,2.62,1.17,2.62,2.62v6.87C47.82,62.68,46.65,63.85,45.2,63.85z"/><path class="st32" d="M25.58,81.21h-6.87c-1.45,0-2.62-1.17-2.62-2.62v-6.87c0-1.45,1.17-2.62,2.62-2.62h6.87    c1.45,0,2.62,1.17,2.62,2.62v6.87C28.2,80.04,27.03,81.21,25.58,81.21z"/><path class="st32" d="M45.2,81.21h-6.87c-1.45,0-2.62-1.17-2.62-2.62v-6.87c0-1.45,1.17-2.62,2.62-2.62h6.87    c1.45,0,2.62,1.17,2.62,2.62v6.87C47.82,80.04,46.65,81.21,45.2,81.21z"/><path class="st28" d="M28.2,36.9v1.92c0-1.39-1.12-2.52-2.52-2.52h-7.07c-1.38,0-2.52,1.12-2.52,2.52V36.9    c0-1.39,1.13-2.52,2.52-2.52h7.07C27.08,34.38,28.2,35.51,28.2,36.9z"/><path class="st28" d="M47.81,36.9v1.92c0-1.39-1.12-2.52-2.51-2.52h-7.08c-1.38,0-2.51,1.12-2.51,2.52V36.9    c0-1.39,1.12-2.52,2.51-2.52h7.08C46.69,34.38,47.81,35.51,47.81,36.9z"/><path class="st28" d="M67.44,36.9v1.92c0-1.39-1.13-2.52-2.52-2.52h-7.07c-1.39,0-2.52,1.12-2.52,2.52V36.9    c0-1.39,1.12-2.52,2.52-2.52h7.07C66.3,34.38,67.44,35.51,67.44,36.9z"/><path class="st28" d="M28.2,54.27v1.92c0-1.39-1.12-2.52-2.52-2.52h-7.07c-1.38,0-2.52,1.12-2.52,2.52v-1.92    c0-1.39,1.13-2.52,2.52-2.52h7.07C27.08,51.75,28.2,52.87,28.2,54.27z"/><path class="st28" d="M47.81,54.27v1.92c0-1.39-1.12-2.52-2.51-2.52h-7.08c-1.38,0-2.51,1.12-2.51,2.52v-1.92    c0-1.39,1.12-2.52,2.51-2.52h7.08C46.69,51.75,47.81,52.87,47.81,54.27z"/><path class="st28" d="M28.2,71.63v1.92c0-1.39-1.12-2.52-2.52-2.52h-7.07c-1.38,0-2.52,1.12-2.52,2.52v-1.92    c0-1.39,1.13-2.52,2.52-2.52h7.07C27.08,69.11,28.2,70.23,28.2,71.63z"/><path class="st28" d="M47.81,71.63v1.92c0-1.39-1.12-2.52-2.51-2.52h-7.08c-1.38,0-2.51,1.12-2.51,2.52v-1.92    c0-1.39,1.12-2.52,2.51-2.52h7.08C46.69,69.11,47.81,70.23,47.81,71.63z"/><path class="st11" d="M25.58,46.49h-6.87c-1.45,0-2.62-1.17-2.62-2.62V37c0-1.45,1.17-2.62,2.62-2.62h6.87    c1.45,0,2.62,1.17,2.62,2.62v6.87C28.2,45.31,27.03,46.49,25.58,46.49z"/><path class="st11" d="M45.2,46.49h-6.87c-1.45,0-2.62-1.17-2.62-2.62V37c0-1.45,1.17-2.62,2.62-2.62h6.87    c1.45,0,2.62,1.17,2.62,2.62v6.87C47.82,45.31,46.65,46.49,45.2,46.49z"/><path class="st11" d="M64.82,46.49h-6.87c-1.45,0-2.62-1.17-2.62-2.62V37c0-1.45,1.17-2.62,2.62-2.62h6.87    c1.45,0,2.62,1.17,2.62,2.62v6.87C67.43,45.31,66.26,46.49,64.82,46.49z"/><path class="st11" d="M25.58,63.85h-6.87c-1.45,0-2.62-1.17-2.62-2.62v-6.87c0-1.45,1.17-2.62,2.62-2.62h6.87    c1.45,0,2.62,1.17,2.62,2.62v6.87C28.2,62.68,27.03,63.85,25.58,63.85z"/><path class="st11" d="M45.2,63.85h-6.87c-1.45,0-2.62-1.17-2.62-2.62v-6.87c0-1.45,1.17-2.62,2.62-2.62h6.87    c1.45,0,2.62,1.17,2.62,2.62v6.87C47.82,62.68,46.65,63.85,45.2,63.85z"/><path class="st11" d="M25.58,81.21h-6.87c-1.45,0-2.62-1.17-2.62-2.62v-6.87c0-1.45,1.17-2.62,2.62-2.62h6.87    c1.45,0,2.62,1.17,2.62,2.62v6.87C28.2,80.04,27.03,81.21,25.58,81.21z"/><path class="st11" d="M45.2,81.21h-6.87c-1.45,0-2.62-1.17-2.62-2.62v-6.87c0-1.45,1.17-2.62,2.62-2.62h6.87    c1.45,0,2.62,1.17,2.62,2.62v6.87C47.82,80.04,46.65,81.21,45.2,81.21z"/><path class="st78" d="M62.73,20.64h-0.11c-1.36,0-2.47-1.1-2.47-2.47V6.44c0-1.36,1.1-2.47,2.47-2.47h0.11    c1.36,0,2.47,1.1,2.47,2.47v11.73C65.2,19.54,64.09,20.64,62.73,20.64z"/><path class="st78" d="M20.91,20.64H20.8c-1.36,0-2.47-1.1-2.47-2.47V6.44c0-1.36,1.1-2.47,2.47-2.47h0.11    c1.36,0,2.47,1.1,2.47,2.47v11.73C23.37,19.54,22.27,20.64,20.91,20.64z"/><g><path class="st5" d="M91.96,64.06l-1-3.83c-0.09-0.35-0.31-0.6-0.58-0.73l-1.93-1.01l-0.75,1.44l-0.11,0.03     c-0.48,0.13-0.98-0.07-1.26-0.49c-0.37-0.55-0.79-1.09-1.25-1.59c-0.33-0.37-0.44-0.91-0.22-1.41l0.83-1.97     c0.29-0.62,0.07-1.34-0.48-1.62l-3.36-1.75c-0.54-0.29-1.25-0.06-1.6,0.52l-1.15,1.81c-0.28,0.47-0.78,0.68-1.27,0.62     c-0.68-0.09-1.37-0.14-2.03-0.11c-0.5,0.01-0.95-0.28-1.13-0.76L74,51.28c-0.1-0.27-0.29-0.48-0.51-0.6v-0.01l-0.05-0.02     l-2.02-1.06l-0.49,0.33l-0.31,1.39l-1.82,0.66c-0.6,0.22-0.98,0.88-0.88,1.53l0.38,2.03c0.09,0.51-0.14,1.05-0.56,1.37     c-0.55,0.45-1.1,0.92-1.61,1.44c-0.37,0.4-0.89,0.53-1.35,0.35l-1.81-0.75c-0.58-0.23-1.27,0.06-1.58,0.66l-1.91,3.66     c-0.32,0.61-0.17,1.33,0.36,1.67l1.65,1.06c0.41,0.27,0.59,0.78,0.48,1.31c-0.14,0.72-0.22,1.44-0.26,2.15     c-0.02,0.52-0.34,1.02-0.8,1.24l-1.89,0.86c-0.58,0.28-0.92,0.97-0.75,1.59l0.57,2.16l-0.71-0.09l-0.16,1.51     c0,0,1.35,0.76,1.92,1.02c0.01,0.01,0.03,0.01,0.04,0.01c0.06,0.03,0.11,0.05,0.14,0.05l0.01,0.01c0.19,0.05,0.4,0.05,0.6-0.01     l1.96-0.54c0.5-0.13,0.99,0.08,1.27,0.49c0.37,0.55,0.78,1.1,1.25,1.59c0.34,0.37,0.44,0.91,0.22,1.41l-0.84,1.98     c-0.27,0.62-0.05,1.33,0.49,1.61l3.36,1.75c0.55,0.29,1.26,0.07,1.6-0.51l1.15-1.82c0.28-0.47,0.79-0.68,1.28-0.62     c0.67,0.1,1.36,0.13,2.02,0.11c0.5,0,0.95,0.28,1.12,0.75l-0.79,1.5l1.99,1.04c0.17,0.1,0.36,0.15,0.56,0.15     c0.13,0,0.27-0.02,0.4-0.07l3.72-1.38c0.61-0.22,0.99-0.88,0.88-1.52l-0.37-2.04c-0.09-0.51,0.14-1.05,0.56-1.37     c0.56-0.45,1.1-0.92,1.61-1.44c0.37-0.4,0.9-0.53,1.35-0.35l1.82,0.75c0.57,0.23,1.26-0.05,1.57-0.65l1.92-3.67     c0.32-0.6,0.16-1.33-0.36-1.67l-1.66-1.06c-0.41-0.27-0.59-0.78-0.48-1.31c0.12-0.71,0.21-1.44,0.25-2.15     c0.02-0.52,0.33-1.01,0.8-1.24l1.87-0.85C91.8,65.38,92.12,64.69,91.96,64.06z M73.33,78.32c-14.37,0-14.35-22.3,0-22.3     C87.71,56.02,87.68,78.32,73.33,78.32z"/><path class="st79" d="M88.41,71.24l-1.66-1.06c-0.41-0.27-0.59-0.78-0.48-1.31c0.13-0.71,0.22-1.43,0.26-2.15     c0.02-0.53,0.33-1.01,0.8-1.24l1.87-0.86c0.6-0.28,0.93-0.98,0.76-1.6l-1-3.84c-0.17-0.63-0.78-0.98-1.4-0.82l-1.97,0.54     c-0.49,0.13-0.98-0.07-1.26-0.49c-0.36-0.57-0.79-1.09-1.25-1.6c-0.33-0.37-0.44-0.91-0.22-1.41l0.84-1.97     c0.27-0.62,0.06-1.33-0.49-1.62l-3.36-1.76c-0.55-0.29-1.25-0.06-1.61,0.52l-1.14,1.81c-0.28,0.47-0.79,0.69-1.28,0.63     c-0.68-0.09-1.35-0.14-2.02-0.11c-0.5,0.02-0.95-0.27-1.13-0.76l-0.67-1.92c-0.22-0.6-0.86-0.91-1.47-0.68l-3.73,1.36     c-0.61,0.22-0.99,0.89-0.88,1.54l0.37,2.03c0.09,0.52-0.14,1.04-0.56,1.36c-0.56,0.44-1.11,0.92-1.61,1.44     c-0.37,0.39-0.9,0.53-1.35,0.35l-1.82-0.75c-0.58-0.23-1.26,0.05-1.57,0.65l-1.92,3.67c-0.31,0.6-0.16,1.32,0.36,1.66l1.66,1.06     c0.41,0.27,0.59,0.78,0.48,1.31c-0.14,0.72-0.21,1.43-0.26,2.15c-0.02,0.53-0.33,1.02-0.8,1.24l-1.89,0.86     c-0.59,0.28-0.92,0.96-0.76,1.59l1.01,3.84c0.17,0.63,0.78,0.99,1.4,0.82l1.96-0.54c0.5-0.14,0.99,0.07,1.27,0.48     c0.36,0.57,0.78,1.1,1.25,1.6c0.33,0.37,0.44,0.91,0.22,1.41l-0.84,1.98c-0.27,0.62-0.06,1.32,0.49,1.61l3.36,1.76     c0.55,0.29,1.25,0.07,1.6-0.51l1.14-1.82c0.28-0.47,0.79-0.69,1.28-0.63c0.67,0.1,1.35,0.14,2.02,0.11c0.5,0,0.95,0.27,1.11,0.76     l0.69,1.92c0.21,0.61,0.86,0.91,1.47,0.68l3.72-1.37c0.61-0.22,1-0.88,0.88-1.53l-0.36-2.04c-0.09-0.51,0.14-1.04,0.56-1.36     c0.56-0.44,1.1-0.91,1.61-1.44c0.37-0.39,0.9-0.53,1.35-0.35l1.82,0.75c0.58,0.23,1.26-0.05,1.57-0.65l1.92-3.67     C89.09,72.3,88.93,71.58,88.41,71.24z M69.61,73.75c-3.38-1.76-4.55-6.19-2.61-9.89c1.93-3.7,6.24-5.27,9.61-3.5     c3.38,1.77,4.55,6.2,2.62,9.9C77.3,73.95,73,75.52,69.61,73.75z"/></g><g><path class="st5" d="M91.9,34.6l-0.58-2.21c-0.05-0.2-0.18-0.35-0.34-0.42l-1.11-0.58l-0.43,0.83l-0.06,0.02     c-0.28,0.07-0.56-0.04-0.72-0.29c-0.21-0.32-0.46-0.63-0.72-0.92c-0.19-0.21-0.25-0.52-0.13-0.81l0.48-1.13     c0.17-0.36,0.04-0.77-0.28-0.93l-1.93-1.01c-0.31-0.17-0.72-0.03-0.92,0.3l-0.66,1.04c-0.16,0.27-0.45,0.39-0.73,0.36     c-0.39-0.05-0.79-0.08-1.17-0.06c-0.29,0.01-0.55-0.16-0.65-0.44l-0.39-1.11c-0.06-0.15-0.17-0.28-0.3-0.35v-0.01l-0.03-0.01     l-1.16-0.61l-0.29,0.19l-0.18,0.8l-1.05,0.38c-0.35,0.13-0.56,0.51-0.51,0.88l0.22,1.17c0.05,0.3-0.08,0.6-0.32,0.79     c-0.32,0.26-0.63,0.53-0.93,0.83c-0.21,0.23-0.51,0.31-0.78,0.2l-1.04-0.43c-0.34-0.13-0.73,0.03-0.91,0.38l-1.1,2.11     c-0.18,0.35-0.1,0.76,0.21,0.96l0.95,0.61c0.23,0.15,0.34,0.45,0.28,0.75c-0.08,0.42-0.13,0.83-0.15,1.24     c-0.01,0.3-0.19,0.59-0.46,0.71l-1.09,0.5c-0.34,0.16-0.53,0.56-0.43,0.92l0.33,1.24l-0.41-0.05l-0.09,0.87     c0,0,0.78,0.44,1.11,0.59c0.01,0.01,0.02,0.01,0.02,0.01c0.03,0.02,0.06,0.03,0.08,0.03l0.01,0.01c0.11,0.03,0.23,0.03,0.35-0.01     l1.13-0.31c0.29-0.07,0.57,0.05,0.73,0.29c0.21,0.32,0.45,0.63,0.72,0.92c0.19,0.21,0.25,0.52,0.13,0.81l-0.48,1.14     c-0.15,0.36-0.03,0.76,0.29,0.93l1.93,1.01c0.32,0.17,0.72,0.04,0.92-0.3l0.66-1.05c0.16-0.27,0.46-0.39,0.74-0.36     c0.39,0.06,0.78,0.07,1.16,0.06c0.29,0,0.55,0.16,0.64,0.43l-0.46,0.87l1.15,0.6c0.1,0.06,0.21,0.09,0.32,0.09     c0.07,0,0.15-0.01,0.23-0.04l2.14-0.79c0.35-0.13,0.57-0.51,0.51-0.88l-0.21-1.17c-0.05-0.3,0.08-0.6,0.32-0.79     c0.32-0.26,0.63-0.53,0.93-0.83c0.21-0.23,0.52-0.31,0.78-0.2l1.05,0.43c0.33,0.13,0.72-0.03,0.91-0.38l1.11-2.11     c0.18-0.35,0.09-0.76-0.21-0.96l-0.96-0.61c-0.23-0.15-0.34-0.45-0.27-0.75c0.07-0.41,0.12-0.83,0.14-1.24     c0.01-0.3,0.19-0.58,0.46-0.71l1.08-0.49C91.81,35.36,92,34.97,91.9,34.6z M81.18,42.82c-8.28,0-8.27-12.85,0-12.85     C89.46,29.97,89.44,42.82,81.18,42.82z"/><path class="st79" d="M89.86,38.73l-0.95-0.61c-0.23-0.15-0.34-0.45-0.28-0.75c0.08-0.41,0.12-0.82,0.15-1.24     c0.01-0.31,0.19-0.58,0.46-0.71l1.08-0.49c0.35-0.16,0.53-0.56,0.44-0.92l-0.58-2.21c-0.1-0.36-0.45-0.56-0.81-0.47l-1.14,0.31     c-0.28,0.08-0.56-0.04-0.72-0.28c-0.21-0.33-0.45-0.63-0.72-0.92c-0.19-0.21-0.25-0.52-0.12-0.81l0.48-1.13     c0.16-0.36,0.04-0.77-0.28-0.93l-1.94-1.01c-0.32-0.17-0.72-0.03-0.93,0.3l-0.66,1.04c-0.16,0.27-0.46,0.4-0.74,0.36     c-0.39-0.05-0.78-0.08-1.17-0.06c-0.29,0.01-0.55-0.16-0.65-0.44l-0.39-1.11c-0.13-0.35-0.49-0.52-0.85-0.39l-2.15,0.78     c-0.35,0.13-0.57,0.51-0.51,0.89l0.21,1.17c0.05,0.3-0.08,0.6-0.32,0.78c-0.32,0.26-0.64,0.53-0.93,0.83     c-0.21,0.23-0.52,0.31-0.78,0.2l-1.05-0.43c-0.33-0.13-0.72,0.03-0.91,0.38l-1.11,2.11c-0.18,0.35-0.09,0.76,0.21,0.96l0.95,0.61     c0.23,0.15,0.34,0.45,0.28,0.75c-0.08,0.42-0.12,0.82-0.15,1.24c-0.01,0.31-0.19,0.59-0.46,0.71l-1.09,0.5     c-0.34,0.16-0.53,0.56-0.44,0.92l0.58,2.21c0.1,0.36,0.45,0.57,0.81,0.47l1.13-0.31c0.29-0.08,0.57,0.04,0.73,0.28     c0.21,0.33,0.45,0.64,0.72,0.92c0.19,0.21,0.25,0.52,0.12,0.81l-0.49,1.14c-0.16,0.36-0.03,0.76,0.28,0.93l1.94,1.01     c0.32,0.17,0.72,0.04,0.92-0.3l0.66-1.05c0.16-0.27,0.46-0.4,0.74-0.36c0.39,0.06,0.78,0.08,1.17,0.06     c0.29,0,0.55,0.16,0.64,0.44l0.4,1.1c0.12,0.35,0.49,0.52,0.85,0.39l2.14-0.79c0.35-0.13,0.57-0.51,0.5-0.88l-0.21-1.17     c-0.05-0.29,0.08-0.6,0.32-0.78c0.32-0.26,0.63-0.53,0.93-0.83c0.21-0.23,0.52-0.31,0.78-0.2l1.05,0.43     c0.33,0.13,0.72-0.03,0.91-0.38l1.11-2.11C90.25,39.35,90.16,38.93,89.86,38.73z M79.03,40.18c-1.94-1.02-2.62-3.57-1.5-5.7     c1.11-2.13,3.59-3.03,5.54-2.02c1.95,1.02,2.62,3.57,1.51,5.7C83.46,40.3,80.98,41.2,79.03,40.18z"/></g></g></g><g id="Layer_4"/></svg>