<?xml version="1.0" ?><!--
  - Copyright (c) 2025 Huawei Device Co., Ltd.
  - Licensed under the Apache License, Version 2.0 (the "License");
  - you may not use this file except in compliance with the License.
  - You may obtain a copy of the License at
  -
  -     http://www.apache.org/licenses/LICENSE-2.0
  -
  - Unless required by applicable law or agreed to in writing, software
  - distributed under the License is distributed on an "AS IS" BASIS,
  - WITHOUT WARRANTIES OR CONDITIONS OF ANY KIND, either express or implied.
  - See the License for the specific language governing permissions and
  - limitations under the License.
  -->

<svg xmlns="http://www.w3.org/2000/svg" xmlns:xlink="http://www.w3.org/1999/xlink" version="1.1" viewBox="0 0 94 94" style="enable-background:new 0 0 94 94;" xml:space="preserve"><style type="text/css">
	.st0{display:none;}
	.st1{display:inline;fill:#FEA900;}
	.st2{display:inline;}
	.st3{display:inline;fill:#F9CD6C;}
	.st4{display:inline;fill:none;stroke:#000000;stroke-width:0.25;stroke-miterlimit:10;}
	.st5{stroke:#000000;stroke-linecap:round;stroke-linejoin:round;stroke-miterlimit:10;}
	.st6{opacity:0.2;stroke:#000000;stroke-linecap:round;stroke-linejoin:round;stroke-miterlimit:10;}
	.st7{fill:#F12A00;stroke:#000000;stroke-linecap:round;stroke-linejoin:round;stroke-miterlimit:10;}
	.st8{fill:#FBECCF;stroke:#000000;stroke-linecap:round;stroke-linejoin:round;stroke-miterlimit:10;}
	.st9{opacity:0.2;fill:#F12A00;}
	.st10{fill:#F7C86C;stroke:#000000;stroke-linecap:round;stroke-linejoin:round;stroke-miterlimit:10;}
	.st11{fill:none;stroke:#000000;stroke-linecap:round;stroke-linejoin:round;stroke-miterlimit:10;}
	.st12{display:inline;stroke:#000000;stroke-linecap:round;stroke-linejoin:round;stroke-miterlimit:10;}
	.st13{fill:#FAAC01;stroke:#000000;stroke-linecap:round;stroke-linejoin:round;stroke-miterlimit:10;}
	.st14{fill:#FAAC01;}
	.st15{display:inline;fill:#FAEBCE;stroke:#000000;stroke-width:0.25;stroke-miterlimit:10;}
	.st16{display:inline;fill:none;stroke:#000000;stroke-width:1.0164;stroke-miterlimit:10;}
	.st17{display:inline;fill:#FAEBCE;stroke:#000000;stroke-width:1.0164;stroke-miterlimit:10;}
	.st18{fill:#FEA900;}
	.st19{fill:#F9CD6C;}
	.st20{fill:none;stroke:#000000;stroke-width:1.0164;stroke-miterlimit:10;}
	.st21{fill:#FAEBCE;stroke:#000000;stroke-width:1.0164;stroke-miterlimit:10;}
	.st22{display:inline;fill:#FAEBCE;}
	.st23{fill:#008FF5;stroke:#000000;stroke-linecap:round;stroke-linejoin:round;stroke-miterlimit:10;}
	.st24{fill:#D0E6FB;stroke:#000000;stroke-linecap:round;stroke-linejoin:round;stroke-miterlimit:10;}
	.st25{fill:#FFFFFF;stroke:#000000;stroke-linecap:round;stroke-linejoin:round;stroke-miterlimit:10;}
	.st26{fill:#75D95D;stroke:#000000;stroke-linecap:round;stroke-linejoin:round;stroke-miterlimit:10;}
	.st27{fill:#CAF3BB;}
	.st28{fill:#FFFFFF;}
	.st29{fill:#CAF3BB;stroke:#000000;stroke-linecap:round;stroke-linejoin:round;stroke-miterlimit:10;}
	.st30{display:inline;fill:#D0E6FB;stroke:#000000;stroke-linecap:round;stroke-linejoin:round;stroke-miterlimit:10;}
	.st31{stroke:#FFFFFF;stroke-linecap:round;stroke-linejoin:round;stroke-miterlimit:10;}
	.st32{fill:#B4B2FB;stroke:#000000;stroke-linecap:round;stroke-linejoin:round;stroke-miterlimit:10;}
	.st33{fill:#018BEE;}
	.st34{display:inline;fill:none;stroke:#000000;stroke-linecap:round;stroke-linejoin:round;stroke-miterlimit:10;}
	.st35{fill:#75D95D;}
	.st36{fill:#4949F7;stroke:#000000;stroke-linecap:round;stroke-linejoin:round;stroke-miterlimit:10;}
	.st37{fill:#D0E6FB;}
	.st38{fill:#6FBBF7;stroke:#000000;stroke-linecap:round;stroke-linejoin:round;stroke-miterlimit:10;}
	.st39{fill:#018BEE;stroke:#000000;stroke-linecap:round;stroke-linejoin:round;stroke-miterlimit:10;}
	.st40{fill:#B4B2FB;}
	.st41{fill:#E8E9FE;}
	.st42{fill:#B4B2FB;stroke:#000F24;stroke-miterlimit:10;}
	.st43{stroke:#000000;stroke-miterlimit:10;}
	.st44{fill:#E8E9FE;stroke:#000000;stroke-linecap:round;stroke-linejoin:round;stroke-miterlimit:10;}
	.st45{opacity:0.3;fill:#018BEE;}
	.st46{fill:#6FBBF7;}
	.st47{fill:#FAAC01;stroke:#FFFFFF;stroke-linecap:round;stroke-linejoin:round;stroke-miterlimit:10;}
	.st48{fill:#006A2F;}
	.st49{opacity:0.1;}
	.st50{fill:#FCD4CA;stroke:#000000;stroke-linecap:round;stroke-linejoin:round;stroke-miterlimit:10;}
	.st51{fill:#006A2F;stroke:#000000;stroke-linecap:round;stroke-linejoin:round;stroke-miterlimit:10;}
	.st52{fill:#4949F7;}
	.st53{fill:#F12A00;}
	.st54{fill:#D0E6FB;stroke:#018BEE;stroke-linecap:round;stroke-linejoin:round;stroke-miterlimit:10;}
	.st55{fill:#9CD7FF;}
	.st56{fill:#F7C86C;}
	.st57{opacity:0.3;stroke:#000000;stroke-linecap:round;stroke-linejoin:round;stroke-miterlimit:10;}
	.st58{opacity:0.1;stroke:#000000;stroke-linecap:round;stroke-linejoin:round;stroke-miterlimit:10;}
	.st59{opacity:0.3;fill:#006A2F;}
	.st60{stroke:#000000;stroke-width:1.0825;stroke-linecap:round;stroke-linejoin:round;stroke-miterlimit:10;}
	.st61{fill:#D0E6FB;stroke:#000000;stroke-width:1.0825;stroke-linecap:round;stroke-linejoin:round;stroke-miterlimit:10;}
	.st62{fill:#6FBBF7;stroke:#000000;stroke-width:1.0825;stroke-linecap:round;stroke-linejoin:round;stroke-miterlimit:10;}
	.st63{fill:none;stroke:#000000;stroke-width:1.0825;stroke-linecap:round;stroke-linejoin:round;stroke-miterlimit:10;}
	.st64{fill:#CAF3BB;stroke:#000000;stroke-width:0.7876;stroke-linecap:round;stroke-linejoin:round;stroke-miterlimit:10;}
	.st65{fill:#6FBBF7;stroke:#FFFFFF;stroke-linecap:round;stroke-linejoin:round;stroke-miterlimit:10;}
	.st66{opacity:0.2;}
	.st67{stroke:#E8E9FE;stroke-linecap:round;stroke-linejoin:round;stroke-miterlimit:10;}
	.st68{fill:#FCD4CA;}
	.st69{fill:#FBECCF;}
	.st70{opacity:0.1;fill:#F12A00;}
	.st71{opacity:0.5;stroke:#000000;stroke-linecap:round;stroke-linejoin:round;stroke-miterlimit:10;}
	.st72{fill:#6FBBF7;stroke:#E8E9FE;stroke-linecap:round;stroke-linejoin:round;stroke-miterlimit:10;}
	.st73{opacity:0.5;fill:#D0E6FB;}
	.st74{fill:#70BAF7;}
	.st75{fill:none;stroke:#FFFFFF;stroke-linecap:round;stroke-linejoin:round;stroke-miterlimit:10;}
	.st76{fill:#70BAF7;stroke:#70BAF7;stroke-linecap:round;stroke-linejoin:round;stroke-miterlimit:10;}
	.st77{fill:#018BEE;stroke:#018BEE;stroke-linecap:round;stroke-linejoin:round;stroke-miterlimit:10;}
	.st78{fill:#70BAF7;stroke:#000000;stroke-linecap:round;stroke-linejoin:round;stroke-miterlimit:10;}
	.st79{fill:#F9CD6C;stroke:#000000;stroke-linecap:round;stroke-linejoin:round;stroke-miterlimit:10;}
	.st80{fill:none;}
	.st81{fill:#006A2F;stroke:#006A2F;stroke-miterlimit:10;}
	.st82{fill:#B4DFFC;}
	.st83{fill:#6FBBF7;stroke:#018BEE;stroke-linecap:round;stroke-linejoin:round;stroke-miterlimit:10;}
	.st84{fill:none;stroke:#FBECCF;stroke-linecap:round;stroke-linejoin:round;stroke-miterlimit:10;}
	.st85{fill:none;stroke:#018BEE;stroke-linecap:round;stroke-linejoin:round;stroke-miterlimit:10;}
	.st86{fill:#010101;stroke:#FFFFFF;stroke-linecap:round;stroke-linejoin:round;stroke-miterlimit:10;}
	.st87{fill:#010101;stroke:#000000;stroke-linecap:round;stroke-linejoin:round;stroke-miterlimit:10;}
	.st88{fill:#75D95D;stroke:#FFFFFF;stroke-linecap:round;stroke-linejoin:round;stroke-miterlimit:10;}
	.st89{fill:#94F279;stroke:#000000;stroke-linecap:round;stroke-linejoin:round;stroke-miterlimit:10;}
	.st90{fill:#8C8CF9;}
	.st91{fill:#008FF5;}
	.st92{fill:#8CD8F9;}
	.st93{fill:#FFC043;}
	.st94{fill:#94F279;}
	.st95{fill:#FF3D1D;}
	.st96{fill:#31B1FF;}
	.st97{fill:#FFCF7B;}
	.st98{fill:#B2FF99;}
	.st99{fill:#D7D7FF;}
	.st100{fill:#FF7C6E;}
	.st101{fill:#5CC9FF;}
	.st102{fill:#F12A00;stroke:#FFFFFF;stroke-linecap:round;stroke-linejoin:round;stroke-miterlimit:10;}
	.st103{fill:#F7C86C;stroke:#000000;stroke-width:1.0164;stroke-miterlimit:10;}
</style><g id="Refrences" class="st0"><polyline class="st34" points="29.01,5.4 29,5.4 28.83,5.4  "/></g><g id="Tittle"/><g id="Icons"><g><path class="st87" d="M81.17,65.97H8.04C4.7,65.97,2,63.27,2,59.93v-42.3c0-3.33,2.7-6.04,6.04-6.04h73.13    c3.33,0,6.04,2.7,6.04,6.04v42.3C87.2,63.27,84.5,65.97,81.17,65.97z"/><path class="st26" d="M85.96,65.97H12.83c-3.33,0-6.04-2.7-6.04-6.04v-42.3c0-3.33,2.7-6.04,6.04-6.04h73.13    c3.33,0,6.04,2.7,6.04,6.04v42.3C92,63.27,89.3,65.97,85.96,65.97z"/><rect x="27.11" y="1.08" transform="matrix(-1.836970e-16 1 -1 -1.836970e-16 88.1794 -10.6174)" class="st25" width="44.58" height="75.4"/><g><path class="st87" d="M57.83,18.18H37.89c-1.18,0-2.13-0.95-2.13-2.13v-3.59c0-1.18,0.95-2.13,2.13-2.13h19.94     c1.18,0,2.13,0.95,2.13,2.13v3.59C59.96,17.22,59.01,18.18,57.83,18.18z"/><line class="st88" x1="39" y1="13.83" x2="57.17" y2="13.83"/></g><g><g><path class="st5" d="M25.56,39c-5.68-0.52-10.48,3.26-10.48,9.32c0,0.55,0.04,1.09,0.12,1.63c0.17,1.16,1.11,2,2.18,2h8.17V39z"/><path class="st5" d="M27.03,25.62c-0.34-0.06-2.15,0-2.51,0c-3.37,0-6.1,2.98-6.1,6.66s2.73,6.66,6.1,6.66      c0.35,0,0.7-0.04,1.04-0.1L27.03,25.62z"/></g><g><path class="st89" d="M36.35,49.93c0.28-1.96,0.08-4-0.83-5.93c-1.34-2.84-4.02-4.56-6.93-4.96      c-5.91-0.82-11.01,3.02-11.01,9.27c0,0.55,0.04,1.09,0.12,1.63c0.17,1.16,1.11,2,2.18,2h14.27      C35.24,51.94,36.18,51.1,36.35,49.93z"/><ellipse class="st50" cx="27.03" cy="32.28" rx="6.1" ry="6.66"/></g></g><g><path class="st37" d="M70.28,28.62H42.09c-0.83,0-1.5-0.67-1.5-1.5v0c0-0.83,0.67-1.5,1.5-1.5h28.19c0.83,0,1.5,0.67,1.5,1.5v0     C71.77,27.95,71.1,28.62,70.28,28.62z"/><path class="st37" d="M80.03,36.07H42.09c-0.83,0-1.5-0.67-1.5-1.5v0c0-0.83,0.67-1.5,1.5-1.5h37.94c0.83,0,1.5,0.67,1.5,1.5v0     C81.53,35.4,80.86,36.07,80.03,36.07z"/><path class="st37" d="M67.06,43.52H42.09c-0.83,0-1.5-0.67-1.5-1.5l0,0c0-0.83,0.67-1.5,1.5-1.5h24.97c0.83,0,1.5,0.67,1.5,1.5     l0,0C68.56,42.85,67.89,43.52,67.06,43.52z"/><path class="st37" d="M80.03,50.97H42.09c-0.83,0-1.5-0.67-1.5-1.5v0c0-0.83,0.67-1.5,1.5-1.5h37.94c0.83,0,1.5,0.67,1.5,1.5v0     C81.53,50.29,80.86,50.97,80.03,50.97z"/></g><g><g><g><g><path class="st5" d="M66.47,55.06c-0.69,0-1.36,0.07-2.02,0.16v28.3c0.66,0.09,1.34,0.16,2.02,0.16        c7.9,0,14.31-6.41,14.31-14.31C80.78,61.47,74.38,55.06,66.47,55.06z"/><g><path class="st5" d="M66.47,57.57c-0.69,0-1.37,0.07-2.02,0.19v23.23c0.66,0.11,1.33,0.19,2.02,0.19         c6.51,0,11.8-5.29,11.8-11.8C78.27,62.86,72.98,57.57,66.47,57.57z"/><path class="st5" d="M66.47,57.57c-0.69,0-1.37,0.07-2.02,0.19v23.23c0.66,0.11,1.33,0.19,2.02,0.19         c0.16,0,0.32-0.02,0.48-0.02V57.6C66.79,57.59,66.63,57.57,66.47,57.57z"/></g><g><path class="st5" d="M74.04,66.84c-0.8-1.34-2.53-1.78-3.88-0.98l-5.55,3.31l-0.16-0.27v6.85c0.21-0.07,0.43-0.15,0.63-0.27         l7.98-4.75C74.4,69.92,74.84,68.18,74.04,66.84z"/></g></g><g><circle class="st44" cx="64.17" cy="69.37" r="14.31"/><g><path class="st40" d="M64.17,81.17c-6.51,0-11.8-5.29-11.8-11.8s5.29-11.8,11.8-11.8c6.51,0,11.8,5.29,11.8,11.8         S70.67,81.17,64.17,81.17z"/><path class="st52" d="M64.65,57.6c-0.16-0.01-0.32-0.02-0.48-0.02c-6.51,0-11.8,5.29-11.8,11.8s5.29,11.8,11.8,11.8         c0.16,0,0.32-0.02,0.48-0.02V57.6z"/></g><g><path class="st44" d="M61.32,75.87c-0.96,0-1.91-0.49-2.43-1.38l-2.29-3.85c-0.8-1.34-0.36-3.08,0.98-3.88         c1.34-0.8,3.08-0.36,3.88,0.98l0.84,1.42l5.55-3.31c1.35-0.8,3.08-0.36,3.88,0.98c0.8,1.34,0.36,3.08-0.98,3.88l-7.98,4.75         C62.32,75.75,61.82,75.87,61.32,75.87z"/></g></g></g></g></g></g></g><g id="Layer_4"/></svg>