<svg width="90.000000" height="48.000000" viewBox="0 0 90 48" fill="none" xmlns="http://www.w3.org/2000/svg" xmlns:xlink="http://www.w3.org/1999/xlink">
	<desc>
			Created with Pixso.
	</desc>
	<defs/>
	<mask id="mask34_5330" mask-type="alpha" maskUnits="userSpaceOnUse" x="34.999756" y="6.000000" width="20.000000" height="20.000000">
		<mask id="mask_34_5330" fill="white">
			<path id="形状结合" d="M38.9998 6L50.9998 6C53.209 6 54.9998 7.79086 54.9998 10L54.9998 22C54.9998 24.2091 53.209 26 50.9998 26L38.9998 26C36.7905 26 34.9998 24.2091 34.9998 22L34.9998 10C34.9998 7.79086 36.7905 6 38.9998 6ZM50.2498 10.75C50.2498 10.3358 49.9141 10 49.4998 10C49.0854 10 48.7498 10.3358 48.7498 10.75C48.7498 12.8211 47.0708 14.5 44.9998 14.5C42.9287 14.5 41.2498 12.8211 41.2498 10.75C41.2498 10.3358 40.9141 10 40.4998 10C40.0854 10 39.7498 10.3358 39.7498 10.75C39.7498 13.6495 42.1003 16 44.9998 16C47.8992 16 50.2498 13.6495 50.2498 10.75Z" clip-rule="evenodd" fill="" fill-opacity="1.000000" fill-rule="evenodd"/>
		</mask>
		<path id="形状结合" d="M38.9998 6L50.9998 6C53.209 6 54.9998 7.79086 54.9998 10L54.9998 22C54.9998 24.2091 53.209 26 50.9998 26L38.9998 26C36.7905 26 34.9998 24.2091 34.9998 22L34.9998 10C34.9998 7.79086 36.7905 6 38.9998 6ZM50.2498 10.75C50.2498 10.3358 49.9141 10 49.4998 10C49.0854 10 48.7498 10.3358 48.7498 10.75C48.7498 12.8211 47.0708 14.5 44.9998 14.5C42.9287 14.5 41.2498 12.8211 41.2498 10.75C41.2498 10.3358 40.9141 10 40.4998 10C40.0854 10 39.7498 10.3358 39.7498 10.75C39.7498 13.6495 42.1003 16 44.9998 16C47.8992 16 50.2498 13.6495 50.2498 10.75Z" clip-rule="evenodd" fill="#000000" fill-opacity="1.000000" fill-rule="evenodd" mask="url(#mask_34_5330)"/>
		<path id="形状结合" d="" clip-rule="evenodd" fill="#000000" fill-opacity="0.000000" fill-rule="evenodd"/>
	</mask>
	<g mask="url(#mask34_5330)">
		<rect id="color/#000000" x="32.999756" y="4.000000" width="24.000000" height="24.000000" fill="#A8AAAB" fill-opacity="1.000000"/>
		<rect id="color/#000000" x="33.499756" y="4.500000" width="23.000000" height="23.000000" stroke="#000000" stroke-opacity="0" stroke-width="1.000000"/>
	</g>
</svg>
