<svg width="48.000000" height="48.000000" viewBox="0 0 48 48" fill="none" xmlns="http://www.w3.org/2000/svg" xmlns:xlink="http://www.w3.org/1999/xlink">
	<desc>
			Created with Pixso.
	</desc>
	<defs>
		<clipPath id="clip21_21813">
			<rect id="square_and_pencil" width="24.000000" height="24.000000" transform="translate(11.692383 12.057129)" fill="white" fill-opacity="0"/>
		</clipPath>
	</defs>
	<g opacity="0.200000">
		<circle id="椭圆形" cx="24.000000" cy="24.000000" r="24.000000" fill="#FFFFFF" fill-opacity="1.000000"/>
	</g>
	<g clip-path="url(#clip21_21813)">
		<g opacity="0.000000">
			<rect id="rect" x="11.692383" y="12.057129" width="24.000000" height="24.000000" fill="#000000" fill-opacity="1.000000"/>
		</g>
		<mask id="mask21_21816" mask-type="alpha" maskUnits="userSpaceOnUse" x="11.692383" y="12.057129" width="24.020020" height="24.000000">
			<rect id="rect" x="11.692383" y="12.057129" width="24.000000" height="24.000000" fill="#FFFFFF" fill-opacity="1.000000"/>
			<path id="path" d="M35.07 12.7C34.85 12.5 34.61 12.34 34.33 12.22C34.05 12.11 33.76 12.05 33.46 12.05C33.15 12.05 32.86 12.11 32.58 12.22C32.3 12.34 32.05 12.5 31.85 12.7L22.3 22.27C22.15 22.42 22.04 22.57 21.96 22.71L20.59 25.13C20.46 25.39 20.4 25.65 20.4 25.91C20.4 26.18 20.47 26.42 20.62 26.62C20.74 26.84 20.92 27.02 21.16 27.16C21.39 27.3 21.63 27.36 21.89 27.36C22.13 27.36 22.36 27.3 22.59 27.17L25.03 25.78C25.17 25.72 25.33 25.6 25.49 25.44L35.07 15.89C35.49 15.45 35.71 14.91 35.71 14.29C35.71 13.68 35.49 13.15 35.07 12.7Z" fill="#000000" fill-opacity="1.000000" fill-rule="nonzero"/>
		</mask>
		<g mask="url(#mask21_21816)">
			<path id="path" d="M29.31 33.65C29.97 33.65 30.6 33.49 31.18 33.15C31.75 32.81 32.21 32.36 32.55 31.78C32.88 31.2 33.05 30.58 33.05 29.91L33.05 18.41C33.05 17.74 32.88 17.12 32.55 16.54C32.21 15.96 31.75 15.51 31.18 15.17C30.6 14.84 29.97 14.67 29.31 14.67L17.81 14.67C17.12 14.67 16.49 14.84 15.91 15.17C15.33 15.51 14.88 15.96 14.55 16.54C14.21 17.12 14.04 17.74 14.04 18.41L14.04 29.91C14.04 30.58 14.21 31.2 14.55 31.78C14.88 32.36 15.33 32.81 15.91 33.15C16.49 33.49 17.12 33.65 17.81 33.65L29.31 33.65ZM29.31 16.15C29.91 16.15 30.44 16.37 30.89 16.81C31.33 17.25 31.56 17.79 31.56 18.41L31.56 29.88C31.56 30.51 31.33 31.04 30.89 31.48C30.44 31.92 29.91 32.14 29.31 32.14L17.81 32.14C17.18 32.14 16.65 31.92 16.21 31.48C15.77 31.04 15.55 30.51 15.55 29.88L15.55 18.41C15.55 17.79 15.77 17.25 16.21 16.81C16.65 16.37 17.18 16.15 17.81 16.15L29.31 16.15Z" fill="#FFFFFF" fill-opacity="0.901961" fill-rule="nonzero"/>
		</g>
		<path id="path" d="M21.6 25.75C21.55 25.83 21.54 25.91 21.58 25.99C21.61 26.07 21.67 26.13 21.76 26.16C21.84 26.2 21.93 26.2 22.01 26.16L23.81 25.15C23.93 25.07 24.05 24.99 24.17 24.91L24.34 24.79L22.97 23.45L22.83 23.67C22.77 23.73 22.74 23.78 22.72 23.82C22.69 23.86 22.65 23.92 22.61 23.98L21.6 25.75ZM34.23 13.54C34.01 13.34 33.76 13.23 33.47 13.23C33.17 13.23 32.92 13.34 32.71 13.54L23.71 22.54C23.66 22.61 23.51 22.77 23.45 22.85L24.91 24.31C24.99 24.27 25.09 24.18 25.23 24.05L34.23 15.05C34.45 14.85 34.56 14.59 34.56 14.29C34.56 14 34.45 13.75 34.23 13.54Z" fill="#FFFFFF" fill-opacity="0.901961" fill-rule="nonzero"/>
	</g>
</svg>
