<svg width="48.000000" height="48.000000" viewBox="0 0 48 48" fill="none" xmlns="http://www.w3.org/2000/svg" xmlns:xlink="http://www.w3.org/1999/xlink">
	<desc>
			Created with Pixso.
	</desc>
	<defs>
		<clipPath id="clip21_21699">
			<rect id="person_text_rectangle_fill" width="26.000000" height="26.000000" transform="translate(11.000000 11.000000)" fill="white" fill-opacity="0"/>
		</clipPath>
	</defs>
	<g opacity="0.200000">
		<circle id="椭圆形" cx="24.000000" cy="24.000000" r="24.000000" fill="#FFFFFF" fill-opacity="1.000000"/>
	</g>
	<g clip-path="url(#clip21_21699)">
		<g opacity="0.000000">
			<rect id="rect" x="11.000000" y="11.000000" width="26.000000" height="26.000000" fill="#000000" fill-opacity="1.000000"/>
		</g>
		<mask id="mask21_21695" mask-type="alpha" maskUnits="userSpaceOnUse" x="11.000000" y="11.000000" width="26.000000" height="26.000000">
			<rect id="rect" x="11.000000" y="11.000000" width="26.000000" height="26.000000" fill="#FFFFFF" fill-opacity="1.000000"/>
			<path id="path" d="M28 17.89C28.49 17.89 28.93 18.01 29.34 18.25C29.75 18.49 30.07 18.82 30.31 19.23C30.56 19.63 30.68 20.08 30.68 20.56C30.68 21.04 30.56 21.49 30.31 21.9C30.07 22.31 29.75 22.63 29.34 22.88C28.93 23.12 28.49 23.24 28 23.24C27.51 23.24 27.06 23.12 26.66 22.88C26.26 22.63 25.93 22.31 25.68 21.9C25.44 21.49 25.32 21.04 25.32 20.56C25.32 20.08 25.44 19.63 25.68 19.23C25.93 18.82 26.26 18.49 26.66 18.25C27.06 18.01 27.51 17.89 28 17.89ZM28.36 24.33C29.09 24.33 29.82 24.52 30.54 24.88C31.25 25.24 31.84 25.74 32.29 26.38C32.74 27.01 32.96 27.7 32.96 28.47C32.96 28.92 32.8 29.3 32.47 29.63C32.14 29.95 31.75 30.11 31.3 30.11L24.64 30.11C24.21 30.11 23.84 29.95 23.52 29.63C23.19 29.3 23.03 28.92 23.03 28.47C23.03 27.7 23.26 27.01 23.71 26.38C24.16 25.74 24.74 25.24 25.44 24.88C26.14 24.52 26.85 24.33 27.58 24.33L28.36 24.33ZM15.81 20.43C15.58 20.43 15.39 20.36 15.23 20.2C15.08 20.04 15 19.85 15 19.63C15 19.41 15.08 19.21 15.23 19.06C15.39 18.9 15.58 18.82 15.81 18.82L20.12 18.82C20.35 18.82 20.54 18.9 20.69 19.06C20.85 19.21 20.93 19.41 20.93 19.63C20.93 19.85 20.85 20.04 20.68 20.2C20.51 20.36 20.32 20.43 20.1 20.43L15.81 20.43ZM15.81 24.8C15.58 24.8 15.39 24.72 15.23 24.57C15.08 24.41 15 24.22 15 24C15 23.77 15.08 23.58 15.23 23.42C15.39 23.27 15.58 23.19 15.81 23.19L20.12 23.19C20.35 23.19 20.54 23.27 20.69 23.42C20.85 23.58 20.93 23.77 20.93 24C20.93 24.22 20.85 24.41 20.68 24.57C20.51 24.72 20.32 24.8 20.1 24.8L15.81 24.8ZM15.81 29.17C15.58 29.17 15.39 29.09 15.23 28.94C15.08 28.78 15 28.58 15 28.36C15 28.14 15.08 27.95 15.23 27.79C15.39 27.64 15.58 27.56 15.81 27.56L20.12 27.56C20.35 27.56 20.54 27.64 20.69 27.79C20.85 27.95 20.93 28.14 20.93 28.36C20.93 28.58 20.85 28.78 20.68 28.94C20.51 29.09 20.32 29.17 20.1 29.17L15.81 29.17Z" fill="#000000" fill-opacity="1.000000" fill-rule="nonzero"/>
		</mask>
		<g mask="url(#mask21_21695)">
			<path id="path" d="M15.36 14.25C14.72 14.25 14.13 14.4 13.58 14.72C13.04 15.05 12.6 15.48 12.28 16.02C11.96 16.57 11.8 17.17 11.8 17.81L11.8 30.18C11.8 30.82 11.96 31.42 12.28 31.97C12.6 32.51 13.04 32.94 13.58 33.27C14.13 33.59 14.72 33.75 15.36 33.75L32.63 33.75C33.27 33.75 33.86 33.59 34.41 33.27C34.96 32.94 35.39 32.51 35.71 31.97C36.03 31.42 36.19 30.82 36.19 30.18L36.19 17.81C36.19 17.17 36.03 16.57 35.71 16.02C35.39 15.48 34.96 15.05 34.41 14.72C33.86 14.4 33.27 14.25 32.63 14.25L15.36 14.25Z" fill="#FFFFFF" fill-opacity="0.901961" fill-rule="nonzero"/>
		</g>
	</g>
</svg>
