<svg width="24.000000" height="24.000000" viewBox="0 0 24 24" fill="none" xmlns="http://www.w3.org/2000/svg" xmlns:xlink="http://www.w3.org/1999/xlink">
	<desc>
			Created with Pixso.
	</desc>
	<defs/>
	<rect id="矩形" width="24.000000" height="24.000000" fill="#D8D8D8" fill-opacity="0"/>
	<rect id="矩形" x="0.500000" y="0.500000" width="23.000000" height="23.000000" stroke="#979797" stroke-opacity="0" stroke-width="1.000000"/>
	<path id="uxs-a" d="M12 1.0033C12.1038 1.0011 12.2139 1 12.3308 1L11.6692 1C11.7861 1 11.8962 1.0011 12 1.0033ZM12 22.9967C10.9668 22.9747 10.5452 22.844 10.1201 22.6167C9.65259 22.3666 9.28564 21.9996 9.0354 21.532L8.99683 21.4581C8.77173 21.0133 8.6521 20.5332 8.6521 19.3214L8.6521 4.67859C8.6521 3.39948 8.7854 2.93561 9.0354 2.46802C9.28564 2.00037 9.65259 1.63336 10.1201 1.3833L10.1941 1.34479C10.5959 1.14124 11.0266 1.02405 12 1.0033C13.0332 1.02533 13.4548 1.15601 13.8799 1.3833C14.3474 1.63336 14.7144 2.00037 14.9646 2.46802L15.0032 2.54193C15.2283 2.98669 15.3479 3.4668 15.3479 4.67859L15.3479 19.3214L15.3467 19.5167C15.3335 20.6494 15.2014 21.089 14.9646 21.532C14.7144 21.9996 14.3474 22.3666 13.8799 22.6167L13.8059 22.6552C13.4041 22.8588 12.9734 22.976 12 22.9967ZM12 22.9967C12.0439 22.9976 12.0891 22.9984 12.1355 22.9989L12.3308 23L11.6692 23C11.7861 23 11.8962 22.9989 12 22.9967ZM12.0876 2.43622L12.3308 2.43475L11.7537 2.43475C11.8428 2.43512 11.9255 2.43604 12.0029 2.4375C11.3083 2.45044 11.0549 2.51044 10.7969 2.6485C10.5791 2.76483 10.417 2.92706 10.3008 3.14465C10.1477 3.43085 10.0903 3.71149 10.0872 4.59412L10.0872 19.4059L10.0884 19.5694C10.0981 20.3248 10.1575 20.5876 10.3008 20.8553C10.417 21.0729 10.5791 21.2352 10.7969 21.3515C11.0544 21.4894 11.3076 21.5494 12 21.5624C11.8994 21.5643 11.7896 21.5652 11.6692 21.5652L12.3308 21.5652L12.0876 21.5638C12.0576 21.5634 12.0286 21.563 12 21.5624C12.6924 21.5494 12.9456 21.4894 13.2031 21.3515C13.4207 21.2352 13.583 21.0729 13.6992 20.8553C13.8428 20.587 13.9021 20.3236 13.9116 19.5645L13.9131 19.3214L13.9131 4.67859C13.9131 3.729 13.8572 3.43982 13.6992 3.14465C13.583 2.92706 13.4207 2.76483 13.2031 2.6485C12.9458 2.51086 12.6931 2.45074 12.0029 2.4375C12.0305 2.43701 12.0588 2.43658 12.0876 2.43622ZM4.3479 8.65552C4.45166 8.65326 4.56177 8.65216 4.67871 8.65216L4.01709 8.65216C4.13379 8.65216 4.2439 8.65326 4.3479 8.65552ZM4.3479 22.9967C5.32104 22.976 5.75171 22.8588 6.15381 22.6552L6.22754 22.6167C6.69531 22.3666 7.06226 21.9996 7.31226 21.532C7.54932 21.089 7.6814 20.6494 7.69458 19.5167L7.69556 19.3214L7.69556 12.3308C7.69556 11.119 7.57617 10.6389 7.35083 10.1941L7.31226 10.1202C7.06226 9.65253 6.69531 9.28552 6.22754 9.03546C5.80273 8.80823 5.38086 8.67749 4.3479 8.65552C3.37451 8.67621 2.94385 8.79346 2.54199 8.99695L2.46802 9.03546C2.00049 9.28552 1.6333 9.65253 1.3833 10.1202C1.1333 10.5878 1 11.0516 1 12.3308L1 19.3214C1 20.5332 1.11963 21.0133 1.34473 21.4581L1.3833 21.532C1.6333 21.9996 2.00049 22.3666 2.46802 22.6167C2.89282 22.844 3.3147 22.9747 4.3479 22.9967ZM4.3479 22.9967C4.2439 22.9989 4.13379 23 4.01709 23L4.67871 23L4.4834 22.9989C4.43701 22.9984 4.39185 22.9976 4.3479 22.9967ZM4.43555 10.0884L4.67871 10.087L4.10156 10.0871C4.18945 10.0875 4.27124 10.0883 4.3479 10.0897C3.65552 10.1028 3.40234 10.1628 3.14453 10.3007C2.927 10.4171 2.76489 10.5792 2.64844 10.7968C2.49536 11.0831 2.43823 11.3636 2.43506 12.2463L2.43506 19.4059L2.43628 19.5694C2.44604 20.3248 2.50537 20.5876 2.64844 20.8553C2.76489 21.0729 2.927 21.2352 3.14453 21.3515C3.40234 21.4894 3.65552 21.5494 4.3479 21.5624C4.24731 21.5643 4.13745 21.5652 4.01709 21.5652L4.67871 21.5652L4.43555 21.5638C4.40552 21.5634 4.37622 21.563 4.3479 21.5624C5.04004 21.5494 5.29321 21.4894 5.55103 21.3515C5.76855 21.2352 5.93091 21.0729 6.04712 20.8553C6.19067 20.587 6.24976 20.3236 6.25952 19.5645L6.26099 19.3214L6.26099 12.3308C6.26099 11.3812 6.20508 11.092 6.04712 10.7968C5.93091 10.5792 5.76855 10.4171 5.55103 10.3007C5.29321 10.1628 5.04004 10.1028 4.3479 10.0897C4.37622 10.0892 4.40552 10.0887 4.43555 10.0884ZM19.9829 13.4348C19.8662 13.4348 19.7561 13.4359 19.6521 13.4381C19.5483 13.4359 19.4382 13.4348 19.3213 13.4348L19.9829 13.4348ZM19.6521 22.9967C18.6191 22.9747 18.1973 22.844 17.7725 22.6167C17.3047 22.3666 16.9377 21.9996 16.6877 21.532L16.6492 21.4581C16.4238 21.0133 16.3044 20.5332 16.3044 19.3214L16.3044 17.1134C16.3044 15.8343 16.4375 15.3704 16.6877 14.9028C16.9377 14.4352 17.3047 14.0682 17.7725 13.8181L17.8462 13.7795C18.2483 13.576 18.679 13.4588 19.6521 13.4381C20.6853 13.4601 21.1072 13.5908 21.532 13.8181C21.9995 14.0682 22.3667 14.4352 22.6167 14.9028L22.6553 14.9767C22.8804 15.4215 23 15.9016 23 17.1134L23 19.3214L22.9988 19.5167C22.9856 20.6494 22.8538 21.089 22.6167 21.532C22.3667 21.9996 21.9995 22.3666 21.532 22.6167L21.458 22.6552C21.0562 22.8588 20.6255 22.976 19.6521 22.9967ZM19.6521 22.9967C19.6963 22.9976 19.7415 22.9984 19.7876 22.9989L19.9829 23L19.3213 23C19.4382 23 19.5483 22.9989 19.6521 22.9967ZM19.9829 14.8696L19.7397 14.871C19.71 14.8713 19.6807 14.8718 19.6521 14.8724C19.5757 14.8709 19.4937 14.8701 19.406 14.8698L19.9829 14.8696ZM19.6521 21.5624C18.96 21.5494 18.7068 21.4894 18.449 21.3515C18.2314 21.2352 18.0691 21.0729 17.9529 20.8553C17.8096 20.5876 17.7505 20.3248 17.7407 19.5694L17.7393 19.4059L17.7393 17.0289C17.7427 16.1462 17.7998 15.8657 17.9529 15.5794C18.0691 15.3618 18.2314 15.1996 18.449 15.0833C18.7068 14.9454 18.96 14.8854 19.6521 14.8724C20.3445 14.8854 20.5977 14.9454 20.8555 15.0833C21.073 15.1996 21.2351 15.3618 21.3516 15.5794C21.5093 15.8746 21.5652 16.1638 21.5652 17.1134L21.5652 19.3214L21.5637 19.5645C21.5542 20.3236 21.4951 20.587 21.3516 20.8553C21.2351 21.0729 21.073 21.2352 20.8555 21.3515C20.5977 21.4894 20.3445 21.5494 19.6521 21.5624ZM19.6521 21.5624C19.6807 21.563 19.71 21.5634 19.7397 21.5638L19.9829 21.5652L19.3213 21.5652C19.4419 21.5652 19.5515 21.5643 19.6521 21.5624Z" clip-rule="evenodd" fill="#000000" fill-opacity="1.000000" fill-rule="evenodd"/>
</svg>
