<svg width="24.000000" height="24.000000" viewBox="0 0 24 24" fill="none" xmlns="http://www.w3.org/2000/svg" xmlns:xlink="http://www.w3.org/1999/xlink">
	<desc>
			Created with Pixso.
	</desc>
	<defs/>
	<mask id="mask24_2847" mask-type="alpha" maskUnits="userSpaceOnUse" x="2.750000" y="0.890442" width="18.500000" height="22.498585">
		<path id="蒙版" d="M12 0.890442L11.8799 0.890442L11.7334 0.891602C6.70801 0.971558 2.75 4.99341 2.75 9.9798C2.75 12.9091 4.02612 15.6274 6.42603 18.6553L6.65063 18.9357L6.88159 19.218C6.92065 19.2652 6.95996 19.3125 6.99951 19.3599L7.24023 19.645L7.48706 19.9323C7.52856 19.9803 7.57056 20.0285 7.61279 20.0767L7.8689 20.3673L8.10083 20.6261L8.19482 20.727C8.21118 20.7443 8.22778 20.7618 8.24512 20.7797L8.35181 20.8897L8.46753 21.0059L8.5918 21.1282L8.72461 21.2568L8.86646 21.3916L9.0957 21.6056L9.34473 21.8339L9.61401 22.0767L9.90332 22.334L10.1074 22.5137L10.4382 22.8023L10.5093 22.8616C11.4209 23.5842 12.7041 23.5609 13.5769 22.8127L13.8518 22.575C13.9419 22.4965 14.0303 22.4189 14.1167 22.3421L14.3716 22.1141C14.4133 22.0765 14.4543 22.0391 14.4951 22.0019L14.7349 21.7811C14.8911 21.6355 15.0408 21.4931 15.1836 21.3539L15.3928 21.1475C15.665 20.8755 15.9104 20.6162 16.1287 20.3694C16.2268 20.2588 16.3228 20.1495 16.417 20.0414L16.6943 19.7211L16.9609 19.4075C18.05 18.1146 18.8728 16.9822 19.5576 15.7794C20.6575 13.8475 21.25 11.936 21.25 9.9798C21.25 4.95667 17.1055 0.890442 12 0.890442ZM12 2.39044L11.886 2.39044L11.7515 2.39148C7.55078 2.45831 4.25 5.8125 4.25 9.9798C4.25 12.8965 5.79932 15.7221 8.73657 19.0831L8.98804 19.3684L9.2124 19.6189C9.2251 19.6326 9.23804 19.6467 9.25122 19.6609L9.33521 19.7496L9.42773 19.8447L9.52856 19.9461L9.6958 20.1099L9.88208 20.2878L10.0872 20.4796L10.2344 20.6152L10.4707 20.83L10.7258 21.0586L10.9995 21.3008L11.4099 21.6597L11.4539 21.6965C11.7903 21.963 12.2734 21.9543 12.6006 21.674L12.863 21.4471L13.1155 21.2253C13.1978 21.1522 13.2786 21.08 13.3577 21.0086L13.5896 20.7971L13.8115 20.5906L14.0234 20.3893L14.2249 20.1932C14.5195 19.903 14.7798 19.6302 15.0056 19.3752C15.0481 19.3271 15.0903 19.2792 15.1323 19.2314L15.3809 18.9466C15.4216 18.8994 15.4622 18.8524 15.5024 18.8055L15.7402 18.526L15.9712 18.2498C16.1228 18.0667 16.2698 17.8858 16.4124 17.7068L16.6223 17.4398C18.7231 14.7395 19.75 12.4709 19.75 9.9798C19.75 5.79156 16.2834 2.39044 12 2.39044ZM14.25 10C14.25 8.75739 13.2427 7.75 12 7.75C10.7573 7.75 9.75 8.75739 9.75 10C9.75 11.2426 10.7573 12.25 12 12.25C13.2427 12.25 14.25 11.2426 14.25 10Z" clip-rule="evenodd" fill="#FFFFFF" fill-opacity="1.000000" fill-rule="evenodd"/>
	</mask>
	<g mask="url(#mask24_2847)">
		<rect id="color/#000000" width="24.000000" height="24.000000" fill="#FFFFFF" fill-opacity="0.901961"/>
	</g>
</svg>
