<svg width="24.000000" height="24.000000" viewBox="0 0 24 24" fill="none" xmlns="http://www.w3.org/2000/svg" xmlns:xlink="http://www.w3.org/1999/xlink">
	<desc>
			Created with Pixso.
	</desc>
	<defs>
		<clipPath id="clip21_21829">
			<rect id="notice_1" width="24.000000" height="24.000000" fill="white" fill-opacity="0"/>
		</clipPath>
	</defs>
	<g clip-path="url(#clip21_21829)">
		<g opacity="0.000000">
			<rect id="rect" width="24.000000" height="24.000000" fill="#000000" fill-opacity="1.000000"/>
		</g>
		<path id="path" d="M17.27 5.9L14.34 2.83C13.94 2.41 13.46 2.13 12.9 1.98C12.34 1.85 11.78 1.85 11.21 1.98C10.65 2.13 10.17 2.41 9.78 2.83L6.85 5.92L4.25 5.92C3.66 5.92 3.13 6.06 2.63 6.34C2.14 6.6 1.75 6.97 1.44 7.42C1.15 7.88 1 8.38 1 8.92L1 19.01C1 19.54 1.15 20.04 1.44 20.51C1.75 20.96 2.14 21.32 2.63 21.6C3.13 21.87 3.66 22.01 4.25 22.01L19.75 22.01C20.32 22.01 20.86 21.87 21.35 21.6C21.85 21.32 22.24 20.96 22.53 20.5C22.82 20.03 22.96 19.53 22.96 19.01L22.96 8.92C22.96 8.38 22.82 7.88 22.53 7.41C22.24 6.95 21.85 6.58 21.35 6.31C20.86 6.03 20.32 5.9 19.75 5.9L17.27 5.9ZM10.84 3.84C11.16 3.5 11.57 3.34 12.06 3.34C12.56 3.34 12.96 3.5 13.26 3.84L15.23 5.92L8.87 5.92L10.84 3.84ZM21.5 19.01C21.5 19.42 21.32 19.78 20.98 20.08C20.64 20.37 20.23 20.52 19.75 20.52L4.25 20.52C3.75 20.52 3.32 20.37 2.98 20.08C2.64 19.78 2.46 19.42 2.46 19.01L2.46 8.92C2.46 8.49 2.64 8.13 2.98 7.84C3.32 7.54 3.75 7.39 4.25 7.39L19.75 7.39C20.23 7.39 20.64 7.54 20.98 7.85C21.32 8.15 21.5 8.51 21.5 8.92L21.5 19.01Z" fill="#FFFFFF" fill-opacity="0.901961" fill-rule="nonzero"/>
		<path id="path" d="M7.58 15.65C7.37 15.65 7.19 15.72 7.06 15.86C6.91 16 6.83 16.18 6.83 16.39C6.83 16.59 6.91 16.77 7.06 16.92C7.19 17.06 7.37 17.14 7.58 17.14L16.58 17.14C16.79 17.14 16.96 17.06 17.1 16.92C17.25 16.77 17.33 16.59 17.33 16.39C17.33 16.18 17.25 16 17.1 15.86C16.96 15.72 16.79 15.65 16.58 15.65L7.58 15.65ZM11.56 12.89C11.77 12.89 11.95 12.81 12.1 12.67C12.26 12.53 12.33 12.35 12.33 12.14C12.33 11.93 12.26 11.76 12.1 11.62C11.95 11.47 11.77 11.4 11.56 11.4L7.58 11.4C7.37 11.4 7.19 11.47 7.06 11.62C6.91 11.76 6.83 11.93 6.83 12.14C6.83 12.35 6.91 12.53 7.06 12.67C7.19 12.81 7.37 12.89 7.58 12.89L11.56 12.89Z" fill="#FFFFFF" fill-opacity="0.901961" fill-rule="nonzero"/>
	</g>
</svg>
