<svg width="48.000000" height="48.000000" viewBox="0 0 48 48" fill="none" xmlns="http://www.w3.org/2000/svg" xmlns:xlink="http://www.w3.org/1999/xlink">
	<desc>
			Created with Pixso.
	</desc>
	<defs>
		<clipPath id="clip21_21829">
			<rect id="notice_1" width="24.000000" height="24.000000" transform="translate(12.500000 11.500000)" fill="white" fill-opacity="0"/>
		</clipPath>
	</defs>
	<g opacity="0.200000">
		<circle id="椭圆形" cx="24.000000" cy="24.000000" r="24.000000" fill="#FFFFFF" fill-opacity="1.000000"/>
	</g>
	<g clip-path="url(#clip21_21829)">
		<g opacity="0.000000">
			<rect id="rect" x="12.500000" y="11.500000" width="24.000000" height="24.000000" fill="#000000" fill-opacity="1.000000"/>
		</g>
		<path id="path" d="M29.77 17.4L26.84 14.33C26.44 13.91 25.96 13.63 25.4 13.49C24.84 13.35 24.28 13.35 23.71 13.49C23.15 13.63 22.67 13.91 22.28 14.33L19.35 17.43L16.75 17.43C16.16 17.43 15.63 17.56 15.13 17.84C14.64 18.1 14.25 18.46 13.94 18.93C13.65 19.38 13.5 19.88 13.5 20.43L13.5 30.51C13.5 31.05 13.65 31.55 13.94 32C14.25 32.46 14.64 32.82 15.13 33.09C15.63 33.37 16.16 33.5 16.75 33.5L32.25 33.5C32.82 33.5 33.36 33.37 33.85 33.09C34.35 32.82 34.74 32.46 35.03 32C35.32 31.53 35.46 31.03 35.46 30.51L35.46 20.43C35.46 19.88 35.32 19.37 35.03 18.92C34.74 18.45 34.35 18.08 33.85 17.81C33.36 17.53 32.82 17.4 32.25 17.4L29.77 17.4ZM23.34 15.34C23.66 15 24.07 14.84 24.56 14.84C25.06 14.84 25.46 15 25.76 15.34L27.73 17.43L21.37 17.43L23.34 15.34ZM34 30.51C34 30.92 33.82 31.28 33.48 31.58C33.14 31.87 32.73 32.02 32.25 32.02L16.75 32.02C16.25 32.02 15.82 31.87 15.48 31.58C15.14 31.28 14.96 30.92 14.96 30.51L14.96 20.43C14.96 19.99 15.14 19.63 15.48 19.34C15.82 19.04 16.25 18.89 16.75 18.89L32.25 18.89C32.73 18.89 33.14 19.04 33.48 19.35C33.82 19.65 34 20.01 34 20.43L34 30.51Z" fill="#FFFFFF" fill-opacity="0.901961" fill-rule="nonzero"/>
		<path id="path" d="M20.08 27.15C19.87 27.15 19.69 27.22 19.56 27.36C19.41 27.5 19.33 27.68 19.33 27.89C19.33 28.09 19.41 28.27 19.56 28.42C19.69 28.56 19.87 28.64 20.08 28.64L29.08 28.64C29.29 28.64 29.46 28.56 29.6 28.42C29.75 28.27 29.83 28.09 29.83 27.89C29.83 27.68 29.75 27.5 29.6 27.36C29.46 27.22 29.29 27.15 29.08 27.15L20.08 27.15ZM24.06 24.39C24.27 24.39 24.45 24.31 24.6 24.17C24.76 24.03 24.83 23.85 24.83 23.64C24.83 23.43 24.76 23.26 24.6 23.12C24.45 22.97 24.27 22.9 24.06 22.9L20.08 22.9C19.87 22.9 19.69 22.97 19.56 23.12C19.41 23.26 19.33 23.43 19.33 23.64C19.33 23.85 19.41 24.03 19.56 24.17C19.69 24.31 19.87 24.39 20.08 24.39L24.06 24.39Z" fill="#FFFFFF" fill-opacity="0.901961" fill-rule="nonzero"/>
	</g>
</svg>
