<svg width="24.000000" height="24.000000" viewBox="0 0 24 24" fill="none" xmlns="http://www.w3.org/2000/svg" xmlns:xlink="http://www.w3.org/1999/xlink">
	<desc>
			Created with Pixso.
	</desc>
	<defs>
		<clipPath id="clip21_21797">
			<rect id="spot_light" width="24.000000" height="24.000000" fill="white" fill-opacity="0"/>
		</clipPath>
	</defs>
	<g clip-path="url(#clip21_21797)">
		<g opacity="0.000000">
			<rect id="rect" width="24.000000" height="24.000000" fill="#000000" fill-opacity="1.000000"/>
		</g>
		<path id="path" d="M12 2.5C13.26 2.5 14.42 2.81 15.48 3.42C16.55 4.05 17.39 4.9 18.02 5.97C18.64 7.04 18.95 8.2 18.95 9.46C18.95 10.64 18.67 11.75 18.11 12.79C17.55 13.83 16.78 14.67 15.78 15.31C15.53 15.49 15.33 15.72 15.19 16C15.06 16.28 14.99 16.58 14.98 16.9L8.97 16.9L8.94 16.75C8.86 16.35 8.77 16.04 8.64 15.85C8.52 15.65 8.32 15.43 8.03 15.19C7.09 14.53 6.35 13.7 5.82 12.68C5.3 11.66 5.03 10.59 5.03 9.46C5.03 8.2 5.35 7.04 5.97 5.97C6.59 4.9 7.44 4.05 8.5 3.42C9.56 2.81 10.73 2.5 12 2.5ZM12 1.01C10.46 1.01 9.04 1.39 7.75 2.15C6.45 2.91 5.42 3.93 4.66 5.22C3.9 6.53 3.52 7.94 3.52 9.46C3.52 10.88 3.85 12.2 4.5 13.43C5.16 14.65 6.05 15.65 7.17 16.44C7.22 16.45 7.27 16.5 7.32 16.58C7.38 16.66 7.42 16.76 7.43 16.9C7.47 17.02 7.49 17.23 7.5 17.53C7.5 17.83 7.5 18.11 7.5 18.37L16.48 18.37L16.45 17.87C16.45 17.43 16.45 17.14 16.43 17.02C16.43 16.84 16.5 16.68 16.62 16.56C17.79 15.79 18.72 14.78 19.41 13.54C20.1 12.28 20.44 10.92 20.44 9.46C20.44 7.94 20.06 6.53 19.3 5.22C18.54 3.93 17.52 2.91 16.23 2.15C14.94 1.39 13.53 1.01 12 1.01ZM7.5 19.37C7.5 20.04 7.65 20.61 7.95 21.07C8.25 21.53 8.63 21.89 9.09 22.13C9.55 22.37 10.02 22.49 10.5 22.49L10.75 22.49C10.82 22.63 10.98 22.75 11.21 22.85C11.45 22.94 11.71 22.99 12 22.99C12.28 22.99 12.54 22.94 12.77 22.85C13.01 22.75 13.17 22.63 13.27 22.49L13.5 22.49C13.98 22.49 14.46 22.37 14.92 22.13C15.38 21.89 15.77 21.53 16.06 21.07C16.36 20.61 16.5 20.04 16.5 19.37L7.5 19.37Z" fill="#FFFFFF" fill-opacity="0.901961" fill-rule="nonzero"/>
	</g>
</svg>
