<svg width="40.000000" height="40.000000" viewBox="0 0 40 40" fill="none" xmlns="http://www.w3.org/2000/svg" xmlns:xlink="http://www.w3.org/1999/xlink">
	<desc>
			Created with Pixso.
	</desc>
	<defs/>
	<circle id="椭圆形" cx="20.000000" cy="20.000000" r="20.000000" fill="#000000" fill-opacity="0.050980"/>
	<mask id="mask78_19215" mask-type="alpha" maskUnits="userSpaceOnUse" x="14.123535" y="14.127380" width="11.753418" height="11.753048">
		<mask id="mask_78_19215" fill="white">
			<path id="形状" d="M25.6567 14.347C25.9497 14.6399 25.9497 15.1148 25.6567 15.4077L15.4038 25.6608C15.1108 25.9537 14.6362 25.9537 14.3433 25.6608C14.0503 25.3679 14.0503 24.893 14.3433 24.6001L18.9399 20.0032L14.3433 15.4077C14.0503 15.1148 14.0503 14.6399 14.3433 14.347C14.6362 14.0542 15.1108 14.0542 15.4038 14.347L20.001 18.9425L24.5962 14.347C24.8892 14.0542 25.3643 14.0542 25.6567 14.347ZM25.6572 25.66C25.9502 25.3671 25.9502 24.8922 25.6572 24.5993L21.7681 20.7102L20.7075 21.7709L24.5962 25.66C24.8892 25.9529 25.3643 25.9529 25.6572 25.66Z" clip-rule="evenodd" fill="" fill-opacity="1.000000" fill-rule="evenodd"/>
		</mask>
		<path id="形状" d="M25.6567 14.347C25.9497 14.6399 25.9497 15.1148 25.6567 15.4077L15.4038 25.6608C15.1108 25.9537 14.6362 25.9537 14.3433 25.6608C14.0503 25.3679 14.0503 24.893 14.3433 24.6001L18.9399 20.0032L14.3433 15.4077C14.0503 15.1148 14.0503 14.6399 14.3433 14.347C14.6362 14.0542 15.1108 14.0542 15.4038 14.347L20.001 18.9425L24.5962 14.347C24.8892 14.0542 25.3643 14.0542 25.6567 14.347ZM25.6572 25.66C25.9502 25.3671 25.9502 24.8922 25.6572 24.5993L21.7681 20.7102L20.7075 21.7709L24.5962 25.66C24.8892 25.9529 25.3643 25.9529 25.6572 25.66Z" clip-rule="evenodd" fill="#000000" fill-opacity="1.000000" fill-rule="evenodd" mask="url(#mask_78_19215)"/>
		<path id="形状" d="" clip-rule="evenodd" fill="#979797" fill-opacity="0.000000" fill-rule="evenodd"/>
	</mask>
	<g mask="url(#mask78_19215)">
		<rect id="color/#000000" x="11.000000" y="11.000000" width="18.000000" height="18.000000" fill="#000000" fill-opacity="0.901961"/>
	</g>
</svg>
